solid OpenSCAD_Model
  facet normal 1 -0 0
    outer loop
      vertex 3.15 -13.2 20
      vertex 3.15 13.2 -20
      vertex 3.15 13.2 20
    endloop
  endfacet
  facet normal 1 0 0
    outer loop
      vertex 3.15 13.2 -20
      vertex 3.15 -13.2 20
      vertex 3.15 -13.2 -20
    endloop
  endfacet
  facet normal 0 0 1
    outer loop
      vertex 3.15 13.2 20
      vertex 1.35 11.4 20
      vertex 3.15 -13.2 20
    endloop
  endfacet
  facet normal 0 0 1
    outer loop
      vertex 3.15 13.2 20
      vertex -1.35 11.4 20
      vertex 1.35 11.4 20
    endloop
  endfacet
  facet normal 0 0 1
    outer loop
      vertex -1.35 11.4 20
      vertex -3.15 13.2 20
      vertex -1.35 -11.4 20
    endloop
  endfacet
  facet normal -0 0 1
    outer loop
      vertex -3.15 13.2 20
      vertex -1.35 11.4 20
      vertex 3.15 13.2 20
    endloop
  endfacet
  facet normal -0 0 1
    outer loop
      vertex 1.35 -11.4 20
      vertex 3.15 -13.2 20
      vertex 1.35 11.4 20
    endloop
  endfacet
  facet normal -0 0 1
    outer loop
      vertex -1.35 -11.4 20
      vertex 3.15 -13.2 20
      vertex 1.35 -11.4 20
    endloop
  endfacet
  facet normal 0 0 1
    outer loop
      vertex -1.35 -11.4 20
      vertex -3.15 -13.2 20
      vertex 3.15 -13.2 20
    endloop
  endfacet
  facet normal 0 0 1
    outer loop
      vertex -3.15 -13.2 20
      vertex -1.35 -11.4 20
      vertex -3.15 13.2 20
    endloop
  endfacet
  facet normal 0 0 -1
    outer loop
      vertex 3.15 -13.2 -20
      vertex 1.35 -11.4 -20
      vertex 3.15 13.2 -20
    endloop
  endfacet
  facet normal 0 0 -1
    outer loop
      vertex 3.15 -13.2 -20
      vertex -1.35 -11.4 -20
      vertex 1.35 -11.4 -20
    endloop
  endfacet
  facet normal -0 0 -1
    outer loop
      vertex -1.35 -11.4 -20
      vertex -3.15 -13.2 -20
      vertex -1.35 11.4 -20
    endloop
  endfacet
  facet normal 0 0 -1
    outer loop
      vertex -3.15 -13.2 -20
      vertex -1.35 -11.4 -20
      vertex 3.15 -13.2 -20
    endloop
  endfacet
  facet normal 0 0 -1
    outer loop
      vertex 1.35 11.4 -20
      vertex 3.15 13.2 -20
      vertex 1.35 -11.4 -20
    endloop
  endfacet
  facet normal 0 0 -1
    outer loop
      vertex -1.35 11.4 -20
      vertex 3.15 13.2 -20
      vertex 1.35 11.4 -20
    endloop
  endfacet
  facet normal 0 0 -1
    outer loop
      vertex -1.35 11.4 -20
      vertex -3.15 13.2 -20
      vertex 3.15 13.2 -20
    endloop
  endfacet
  facet normal 0 0 -1
    outer loop
      vertex -3.15 13.2 -20
      vertex -1.35 11.4 -20
      vertex -3.15 -13.2 -20
    endloop
  endfacet
  facet normal -1 0 0
    outer loop
      vertex -3.15 -13.2 -20
      vertex -3.15 13.2 20
      vertex -3.15 13.2 -20
    endloop
  endfacet
  facet normal -1 -0 0
    outer loop
      vertex -3.15 13.2 20
      vertex -3.15 -13.2 -20
      vertex -3.15 -13.2 20
    endloop
  endfacet
  facet normal 0 1 -0
    outer loop
      vertex 3.15 13.2 -20
      vertex -3.15 13.2 20
      vertex 3.15 13.2 20
    endloop
  endfacet
  facet normal 0 1 0
    outer loop
      vertex -3.15 13.2 20
      vertex 3.15 13.2 -20
      vertex -3.15 13.2 -20
    endloop
  endfacet
  facet normal 0 -1 0
    outer loop
      vertex -3.15 -13.2 -20
      vertex 3.15 -13.2 20
      vertex -3.15 -13.2 20
    endloop
  endfacet
  facet normal 0 -1 -0
    outer loop
      vertex 3.15 -13.2 20
      vertex -3.15 -13.2 -20
      vertex 3.15 -13.2 -20
    endloop
  endfacet
  facet normal -1 0 0
    outer loop
      vertex 1.35 -11.4 -20
      vertex 1.35 11.4 20
      vertex 1.35 11.4 -20
    endloop
  endfacet
  facet normal -1 -0 0
    outer loop
      vertex 1.35 11.4 20
      vertex 1.35 -11.4 -20
      vertex 1.35 -11.4 20
    endloop
  endfacet
  facet normal 1 -0 0
    outer loop
      vertex -1.35 -11.4 20
      vertex -1.35 11.4 -20
      vertex -1.35 11.4 20
    endloop
  endfacet
  facet normal 1 0 0
    outer loop
      vertex -1.35 11.4 -20
      vertex -1.35 -11.4 20
      vertex -1.35 -11.4 -20
    endloop
  endfacet
  facet normal 0 -1 0
    outer loop
      vertex -1.35 11.4 -20
      vertex 1.35 11.4 20
      vertex -1.35 11.4 20
    endloop
  endfacet
  facet normal 0 -1 -0
    outer loop
      vertex 1.35 11.4 20
      vertex -1.35 11.4 -20
      vertex 1.35 11.4 -20
    endloop
  endfacet
  facet normal 0 1 -0
    outer loop
      vertex 1.35 -11.4 -20
      vertex -1.35 -11.4 20
      vertex 1.35 -11.4 20
    endloop
  endfacet
  facet normal 0 1 0
    outer loop
      vertex -1.35 -11.4 20
      vertex 1.35 -11.4 -20
      vertex -1.35 -11.4 -20
    endloop
  endfacet
endsolid OpenSCAD_Model
