solid OpenSCAD_Model
  facet normal 1 -0 0
    outer loop
      vertex 90 0 12.1211
      vertex 90 26.4 0
      vertex 90 26.4 12.1211
    endloop
  endfacet
  facet normal 1 0 0
    outer loop
      vertex 90 26.4 0
      vertex 90 0 12.1211
      vertex 90 0 0
    endloop
  endfacet
  facet normal 0 0 -1
    outer loop
      vertex 0 0 0
      vertex 90 26.4 0
      vertex 90 0 0
    endloop
  endfacet
  facet normal -0 0 -1
    outer loop
      vertex 90 26.4 0
      vertex 0 0 0
      vertex 0 26.4 0
    endloop
  endfacet
  facet normal -1 0 0
    outer loop
      vertex 0 0 0
      vertex 0 26.4 9.14711
      vertex 0 26.4 0
    endloop
  endfacet
  facet normal -1 -0 0
    outer loop
      vertex 0 26.4 9.14711
      vertex 0 0 0
      vertex 0 0 9.14711
    endloop
  endfacet
  facet normal 0 1 0
    outer loop
      vertex 27.0581 26.4 9.06948
      vertex 0 26.4 0
      vertex 21.5292 26.4 9.01737
    endloop
  endfacet
  facet normal 0 1 0
    outer loop
      vertex 32.5866 26.4 9.15633
      vertex 0 26.4 0
      vertex 27.0581 26.4 9.06948
    endloop
  endfacet
  facet normal 0 1 0
    outer loop
      vertex 38.1145 26.4 9.27791
      vertex 0 26.4 0
      vertex 32.5866 26.4 9.15633
    endloop
  endfacet
  facet normal 0 1 0
    outer loop
      vertex 0 26.4 0
      vertex 38.1145 26.4 9.27791
      vertex 90 26.4 0
    endloop
  endfacet
  facet normal 0 1 0
    outer loop
      vertex 43.6415 26.4 9.43423
      vertex 90 26.4 0
      vertex 38.1145 26.4 9.27791
    endloop
  endfacet
  facet normal 0 1 0
    outer loop
      vertex 49.1674 26.4 9.62526
      vertex 90 26.4 0
      vertex 43.6415 26.4 9.43423
    endloop
  endfacet
  facet normal 0 1 0
    outer loop
      vertex 54.6919 26.4 9.85102
      vertex 90 26.4 0
      vertex 49.1674 26.4 9.62526
    endloop
  endfacet
  facet normal 0 1 0
    outer loop
      vertex 60.215 26.4 10.1115
      vertex 90 26.4 0
      vertex 54.6919 26.4 9.85102
    endloop
  endfacet
  facet normal 0 1 0
    outer loop
      vertex 65.7363 26.4 10.4066
      vertex 90 26.4 0
      vertex 60.215 26.4 10.1115
    endloop
  endfacet
  facet normal 0 1 0
    outer loop
      vertex 71.2557 26.4 10.7365
      vertex 90 26.4 0
      vertex 65.7363 26.4 10.4066
    endloop
  endfacet
  facet normal 0 1 0
    outer loop
      vertex 76.7728 26.4 11.101
      vertex 90 26.4 0
      vertex 71.2557 26.4 10.7365
    endloop
  endfacet
  facet normal 0 1 0
    outer loop
      vertex 82.2876 26.4 11.5002
      vertex 90 26.4 0
      vertex 76.7728 26.4 11.101
    endloop
  endfacet
  facet normal 0 1 0
    outer loop
      vertex 87.7997 26.4 11.934
      vertex 90 26.4 0
      vertex 82.2876 26.4 11.5002
    endloop
  endfacet
  facet normal 0 1 -0
    outer loop
      vertex 90 26.4 0
      vertex 87.7997 26.4 11.934
      vertex 90 26.4 12.1211
    endloop
  endfacet
  facet normal 0 1 0
    outer loop
      vertex 21.5292 26.4 9.01737
      vertex 0 26.4 0
      vertex 16 26.4 9
    endloop
  endfacet
  facet normal 0 1 0
    outer loop
      vertex 16 26.4 9
      vertex 0 26.4 0
      vertex 10.4708 26.4 9.01737
    endloop
  endfacet
  facet normal 0 1 0
    outer loop
      vertex 10.4708 26.4 9.01737
      vertex 0 26.4 0
      vertex 4.94188 26.4 9.06948
    endloop
  endfacet
  facet normal 0 1 0
    outer loop
      vertex 4.94188 26.4 9.06948
      vertex 0 26.4 0
      vertex 0 26.4 9.14711
    endloop
  endfacet
  facet normal 0 -1 -0
    outer loop
      vertex 10.4708 0 9.01737
      vertex 0 0 0
      vertex 16 0 9
    endloop
  endfacet
  facet normal 0 -1 -0
    outer loop
      vertex 4.94188 0 9.06948
      vertex 0 0 0
      vertex 10.4708 0 9.01737
    endloop
  endfacet
  facet normal 0 -1 0
    outer loop
      vertex 0 0 0
      vertex 4.94188 0 9.06948
      vertex 0 0 9.14711
    endloop
  endfacet
  facet normal 0 -1 0
    outer loop
      vertex 0 0 0
      vertex 21.5292 0 9.01737
      vertex 16 0 9
    endloop
  endfacet
  facet normal 0 -1 0
    outer loop
      vertex 0 0 0
      vertex 27.0581 0 9.06948
      vertex 21.5292 0 9.01737
    endloop
  endfacet
  facet normal 0 -1 0
    outer loop
      vertex 0 0 0
      vertex 32.5866 0 9.15633
      vertex 27.0581 0 9.06948
    endloop
  endfacet
  facet normal 0 -1 0
    outer loop
      vertex 0 0 0
      vertex 38.1145 0 9.27791
      vertex 32.5866 0 9.15633
    endloop
  endfacet
  facet normal 0 -1 0
    outer loop
      vertex 0 0 0
      vertex 43.6415 0 9.43423
      vertex 38.1145 0 9.27791
    endloop
  endfacet
  facet normal 0 -1 0
    outer loop
      vertex 90 0 0
      vertex 43.6415 0 9.43423
      vertex 0 0 0
    endloop
  endfacet
  facet normal 0 -1 0
    outer loop
      vertex 43.6415 0 9.43423
      vertex 90 0 0
      vertex 49.1674 0 9.62526
    endloop
  endfacet
  facet normal 0 -1 0
    outer loop
      vertex 49.1674 0 9.62526
      vertex 90 0 0
      vertex 54.6919 0 9.85102
    endloop
  endfacet
  facet normal 0 -1 0
    outer loop
      vertex 54.6919 0 9.85102
      vertex 90 0 0
      vertex 60.215 0 10.1115
    endloop
  endfacet
  facet normal 0 -1 0
    outer loop
      vertex 60.215 0 10.1115
      vertex 90 0 0
      vertex 65.7363 0 10.4066
    endloop
  endfacet
  facet normal 0 -1 0
    outer loop
      vertex 65.7363 0 10.4066
      vertex 90 0 0
      vertex 71.2557 0 10.7365
    endloop
  endfacet
  facet normal 0 -1 0
    outer loop
      vertex 71.2557 0 10.7365
      vertex 90 0 0
      vertex 76.7728 0 11.101
    endloop
  endfacet
  facet normal 0 -1 0
    outer loop
      vertex 76.7728 0 11.101
      vertex 90 0 0
      vertex 82.2876 0 11.5002
    endloop
  endfacet
  facet normal 0 -1 0
    outer loop
      vertex 82.2876 0 11.5002
      vertex 90 0 0
      vertex 87.7997 0 11.934
    endloop
  endfacet
  facet normal 0 -1 0
    outer loop
      vertex 87.7997 0 11.934
      vertex 90 0 0
      vertex 90 0 12.1211
    endloop
  endfacet
  facet normal -0.0847381 0 0.996403
    outer loop
      vertex 90 26.4 12.1211
      vertex 88.0222 24.55 11.9529
      vertex 90 0 12.1211
    endloop
  endfacet
  facet normal -0.0847281 -1.07901e-05 0.996404
    outer loop
      vertex 87.7997 26.4 11.934
      vertex 88.0222 24.55 11.9529
      vertex 90 26.4 12.1211
    endloop
  endfacet
  facet normal -0.084639 0 0.996412
    outer loop
      vertex 88.0222 24.55 11.9529
      vertex 87.7997 26.4 11.934
      vertex 87.7997 24.55 11.934
    endloop
  endfacet
  facet normal -0.0847381 0 0.996403
    outer loop
      vertex 88.0222 1.85 11.9529
      vertex 90 0 12.1211
      vertex 88.0222 24.55 11.9529
    endloop
  endfacet
  facet normal -0.084639 0 0.996412
    outer loop
      vertex 87.7997 0 11.934
      vertex 88.0222 1.85 11.9529
      vertex 87.7997 1.85 11.934
    endloop
  endfacet
  facet normal -0.0847281 1.07901e-05 0.996404
    outer loop
      vertex 88.0222 1.85 11.9529
      vertex 87.7997 0 11.934
      vertex 90 0 12.1211
    endloop
  endfacet
  facet normal -0.0784615 0 0.996917
    outer loop
      vertex 87.7997 26.4 11.934
      vertex 85.6791 24.55 11.7671
      vertex 87.7997 24.55 11.934
    endloop
  endfacet
  facet normal -0.0784905 0 0.996915
    outer loop
      vertex 85.6791 24.55 11.7671
      vertex 84.5106 24.55 11.6751
      vertex 85.6791 1.85 11.7671
    endloop
  endfacet
  facet normal -0.0784905 3.34576e-05 0.996915
    outer loop
      vertex 87.7997 26.4 11.934
      vertex 84.5106 24.55 11.6751
      vertex 85.6791 24.55 11.7671
    endloop
  endfacet
  facet normal -0.078457 -2.65043e-05 0.996917
    outer loop
      vertex 82.2876 26.4 11.5002
      vertex 84.5106 24.55 11.6751
      vertex 87.7997 26.4 11.934
    endloop
  endfacet
  facet normal -0.0784351 0 0.996919
    outer loop
      vertex 84.5106 24.55 11.6751
      vertex 82.2876 26.4 11.5002
      vertex 82.2876 24.55 11.5002
    endloop
  endfacet
  facet normal -0.0784615 0 0.996917
    outer loop
      vertex 85.6791 1.85 11.7671
      vertex 87.7997 0 11.934
      vertex 87.7997 1.85 11.934
    endloop
  endfacet
  facet normal -0.0784905 0 0.996915
    outer loop
      vertex 84.5106 1.85 11.6751
      vertex 85.6791 1.85 11.7671
      vertex 84.5106 24.55 11.6751
    endloop
  endfacet
  facet normal -0.0784905 -3.34576e-05 0.996915
    outer loop
      vertex 84.5106 1.85 11.6751
      vertex 87.7997 0 11.934
      vertex 85.6791 1.85 11.7671
    endloop
  endfacet
  facet normal -0.0784351 0 0.996919
    outer loop
      vertex 82.2876 0 11.5002
      vertex 84.5106 1.85 11.6751
      vertex 82.2876 1.85 11.5002
    endloop
  endfacet
  facet normal -0.078457 2.65043e-05 0.996917
    outer loop
      vertex 84.5106 1.85 11.6751
      vertex 82.2876 0 11.5002
      vertex 87.7997 0 11.934
    endloop
  endfacet
  facet normal -0.040844 0 0.999166
    outer loop
      vertex 54.6919 26.4 9.85102
      vertex 54.0473 24.55 9.82467
      vertex 54.6919 24.55 9.85102
    endloop
  endfacet
  facet normal -0.0408284 0 0.999166
    outer loop
      vertex 54.0473 24.55 9.82467
      vertex 52.8785 24.55 9.77691
      vertex 54.0473 1.85 9.82467
    endloop
  endfacet
  facet normal -0.0408284 -5.44526e-06 0.999166
    outer loop
      vertex 54.6919 26.4 9.85102
      vertex 52.8785 24.55 9.77691
      vertex 54.0473 24.55 9.82467
    endloop
  endfacet
  facet normal -0.0408312 -2.68955e-06 0.999166
    outer loop
      vertex 49.1674 26.4 9.62526
      vertex 52.8785 24.55 9.77691
      vertex 54.6919 26.4 9.85102
    endloop
  endfacet
  facet normal -0.0408338 0 0.999166
    outer loop
      vertex 50.53 24.55 9.68095
      vertex 49.3616 24.55 9.6332
      vertex 50.53 1.85 9.68095
    endloop
  endfacet
  facet normal -0.0408261 7.55896e-06 0.999166
    outer loop
      vertex 52.8785 24.55 9.77691
      vertex 49.1674 26.4 9.62526
      vertex 50.53 24.55 9.68095
    endloop
  endfacet
  facet normal -0.0408338 1.87025e-06 0.999166
    outer loop
      vertex 50.53 24.55 9.68095
      vertex 49.1674 26.4 9.62526
      vertex 49.3616 24.55 9.6332
    endloop
  endfacet
  facet normal -0.0408516 0 0.999165
    outer loop
      vertex 49.3616 24.55 9.6332
      vertex 49.1674 26.4 9.62526
      vertex 49.1674 24.55 9.62526
    endloop
  endfacet
  facet normal -0.040844 0 0.999166
    outer loop
      vertex 54.0473 1.85 9.82467
      vertex 54.6919 0 9.85102
      vertex 54.6919 1.85 9.85102
    endloop
  endfacet
  facet normal -0.0408284 0 0.999166
    outer loop
      vertex 52.8785 1.85 9.77691
      vertex 54.0473 1.85 9.82467
      vertex 52.8785 24.55 9.77691
    endloop
  endfacet
  facet normal -0.0408284 5.44526e-06 0.999166
    outer loop
      vertex 52.8785 1.85 9.77691
      vertex 54.6919 0 9.85102
      vertex 54.0473 1.85 9.82467
    endloop
  endfacet
  facet normal -0.0408261 -7.55896e-06 0.999166
    outer loop
      vertex 49.1674 0 9.62526
      vertex 52.8785 1.85 9.77691
      vertex 50.53 1.85 9.68095
    endloop
  endfacet
  facet normal -0.0408338 0 0.999166
    outer loop
      vertex 49.3616 1.85 9.6332
      vertex 50.53 1.85 9.68095
      vertex 49.3616 24.55 9.6332
    endloop
  endfacet
  facet normal -0.0408338 -1.87025e-06 0.999166
    outer loop
      vertex 49.1674 0 9.62526
      vertex 50.53 1.85 9.68095
      vertex 49.3616 1.85 9.6332
    endloop
  endfacet
  facet normal -0.0408516 0 0.999165
    outer loop
      vertex 49.1674 0 9.62526
      vertex 49.3616 1.85 9.6332
      vertex 49.1674 1.85 9.62526
    endloop
  endfacet
  facet normal -0.0408312 2.68955e-06 0.999166
    outer loop
      vertex 52.8785 1.85 9.77691
      vertex 49.1674 0 9.62526
      vertex 54.6919 0 9.85102
    endloop
  endfacet
  facet normal -0.053345 0 0.998576
    outer loop
      vertex 65.7363 26.4 10.4066
      vertex 64.5963 24.55 10.3457
      vertex 65.7363 24.55 10.4066
    endloop
  endfacet
  facet normal -0.0533928 0 0.998574
    outer loop
      vertex 64.5963 24.55 10.3457
      vertex 63.4274 24.55 10.2832
      vertex 64.5963 1.85 10.3457
    endloop
  endfacet
  facet normal -0.0533928 2.9549e-05 0.998574
    outer loop
      vertex 65.7363 26.4 10.4066
      vertex 63.4274 24.55 10.2832
      vertex 64.5963 24.55 10.3457
    endloop
  endfacet
  facet normal -0.0533714 2.73439e-06 0.998575
    outer loop
      vertex 60.215 26.4 10.1115
      vertex 63.4274 24.55 10.2832
      vertex 65.7363 26.4 10.4066
    endloop
  endfacet
  facet normal -0.0533098 0 0.998578
    outer loop
      vertex 61.0804 24.55 10.1577
      vertex 60.215 26.4 10.1115
      vertex 61.0804 1.85 10.1577
    endloop
  endfacet
  facet normal -0.0533962 -4.0546e-05 0.998573
    outer loop
      vertex 63.4274 24.55 10.2832
      vertex 60.215 26.4 10.1115
      vertex 61.0804 24.55 10.1577
    endloop
  endfacet
  facet normal -0.053345 0 0.998576
    outer loop
      vertex 64.5963 1.85 10.3457
      vertex 65.7363 0 10.4066
      vertex 65.7363 1.85 10.4066
    endloop
  endfacet
  facet normal -0.0533928 0 0.998574
    outer loop
      vertex 63.4274 1.85 10.2832
      vertex 64.5963 1.85 10.3457
      vertex 63.4274 24.55 10.2832
    endloop
  endfacet
  facet normal -0.0533928 -2.9549e-05 0.998574
    outer loop
      vertex 63.4274 1.85 10.2832
      vertex 65.7363 0 10.4066
      vertex 64.5963 1.85 10.3457
    endloop
  endfacet
  facet normal -0.0533962 4.0546e-05 0.998573
    outer loop
      vertex 60.215 0 10.1115
      vertex 63.4274 1.85 10.2832
      vertex 61.0804 1.85 10.1577
    endloop
  endfacet
  facet normal -0.0533714 -2.73439e-06 0.998575
    outer loop
      vertex 63.4274 1.85 10.2832
      vertex 60.215 0 10.1115
      vertex 65.7363 0 10.4066
    endloop
  endfacet
  facet normal -0.0533098 0 0.998578
    outer loop
      vertex 60.215 0 10.1115
      vertex 61.0804 1.85 10.1577
      vertex 60.215 26.4 10.1115
    endloop
  endfacet
  facet normal -0.00314016 0 0.999995
    outer loop
      vertex 21.5292 26.4 9.01737
      vertex 21.2203 24.55 9.0164
      vertex 21.5292 0 9.01737
    endloop
  endfacet
  facet normal -0.00313988 -4.73753e-08 0.999995
    outer loop
      vertex 21.5292 26.4 9.01737
      vertex 18.8699 24.55 9.00902
      vertex 21.2203 24.55 9.0164
    endloop
  endfacet
  facet normal -0.00314453 0 0.999995
    outer loop
      vertex 18.8699 24.55 9.00902
      vertex 17.7028 24.55 9.00535
      vertex 18.8699 1.85 9.00902
    endloop
  endfacet
  facet normal -0.00314149 2.2701e-06 0.999995
    outer loop
      vertex 16 26.4 9
      vertex 18.8699 24.55 9.00902
      vertex 21.5292 26.4 9.01737
    endloop
  endfacet
  facet normal -0.00314453 -2.45051e-06 0.999995
    outer loop
      vertex 18.8699 24.55 9.00902
      vertex 16 26.4 9
      vertex 17.7028 24.55 9.00535
    endloop
  endfacet
  facet normal -0.00314187 0 0.999995
    outer loop
      vertex 17.7028 24.55 9.00535
      vertex 16 26.4 9
      vertex 16 24.55 9
    endloop
  endfacet
  facet normal -0.00314016 0 0.999995
    outer loop
      vertex 21.2203 1.85 9.0164
      vertex 21.5292 0 9.01737
      vertex 21.2203 24.55 9.0164
    endloop
  endfacet
  facet normal -0.00313988 4.73753e-08 0.999995
    outer loop
      vertex 18.8699 1.85 9.00902
      vertex 21.5292 0 9.01737
      vertex 21.2203 1.85 9.0164
    endloop
  endfacet
  facet normal -0.00314453 0 0.999995
    outer loop
      vertex 17.7028 1.85 9.00535
      vertex 18.8699 1.85 9.00902
      vertex 17.7028 24.55 9.00535
    endloop
  endfacet
  facet normal -0.00314453 2.45051e-06 0.999995
    outer loop
      vertex 16 0 9
      vertex 18.8699 1.85 9.00902
      vertex 17.7028 1.85 9.00535
    endloop
  endfacet
  facet normal -0.00314187 0 0.999995
    outer loop
      vertex 16 0 9
      vertex 17.7028 1.85 9.00535
      vertex 16 1.85 9
    endloop
  endfacet
  facet normal -0.00314149 -2.2701e-06 0.999995
    outer loop
      vertex 18.8699 1.85 9.00902
      vertex 16 0 9
      vertex 21.5292 0 9.01737
    endloop
  endfacet
  facet normal -0.0157138 0 0.999877
    outer loop
      vertex 32.5866 26.4 9.15633
      vertex 31.7734 24.55 9.14355
      vertex 32.5866 0 9.15633
    endloop
  endfacet
  facet normal -0.0157038 -4.38478e-06 0.999877
    outer loop
      vertex 32.5866 26.4 9.15633
      vertex 29.4233 24.55 9.10664
      vertex 31.7734 24.55 9.14355
    endloop
  endfacet
  facet normal -0.0157127 0 0.999877
    outer loop
      vertex 29.4233 24.55 9.10664
      vertex 28.2556 24.55 9.08829
      vertex 29.4233 1.85 9.10664
    endloop
  endfacet
  facet normal -0.0157076 2.096e-06 0.999877
    outer loop
      vertex 27.0581 26.4 9.06948
      vertex 29.4233 24.55 9.10664
      vertex 32.5866 26.4 9.15633
    endloop
  endfacet
  facet normal -0.0157127 -4.48412e-06 0.999877
    outer loop
      vertex 29.4233 24.55 9.10664
      vertex 27.0581 26.4 9.06948
      vertex 28.2556 24.55 9.08829
    endloop
  endfacet
  facet normal -0.0157058 0 0.999877
    outer loop
      vertex 28.2556 24.55 9.08829
      vertex 27.0581 26.4 9.06948
      vertex 27.0581 24.55 9.06948
    endloop
  endfacet
  facet normal -0.0157138 0 0.999877
    outer loop
      vertex 31.7734 1.85 9.14355
      vertex 32.5866 0 9.15633
      vertex 31.7734 24.55 9.14355
    endloop
  endfacet
  facet normal -0.0157038 4.38478e-06 0.999877
    outer loop
      vertex 29.4233 1.85 9.10664
      vertex 32.5866 0 9.15633
      vertex 31.7734 1.85 9.14355
    endloop
  endfacet
  facet normal -0.0157127 0 0.999877
    outer loop
      vertex 28.2556 1.85 9.08829
      vertex 29.4233 1.85 9.10664
      vertex 28.2556 24.55 9.08829
    endloop
  endfacet
  facet normal -0.0157127 4.48412e-06 0.999877
    outer loop
      vertex 27.0581 0 9.06948
      vertex 29.4233 1.85 9.10664
      vertex 28.2556 1.85 9.08829
    endloop
  endfacet
  facet normal -0.0157058 0 0.999877
    outer loop
      vertex 27.0581 0 9.06948
      vertex 28.2556 1.85 9.08829
      vertex 27.0581 1.85 9.06948
    endloop
  endfacet
  facet normal -0.0157076 -2.096e-06 0.999877
    outer loop
      vertex 29.4233 1.85 9.10664
      vertex 27.0581 0 9.06948
      vertex 32.5866 0 9.15633
    endloop
  endfacet
  facet normal 0.00942627 0 0.999956
    outer loop
      vertex 10.4708 26.4 9.01737
      vertex 8.3184 24.55 9.03766
      vertex 10.4708 24.55 9.01737
    endloop
  endfacet
  facet normal 0.00942319 0 0.999956
    outer loop
      vertex 8.3184 24.55 9.03766
      vertex 7.15218 24.55 9.04865
      vertex 8.3184 1.85 9.03766
    endloop
  endfacet
  facet normal 0.00942319 3.58166e-06 0.999956
    outer loop
      vertex 10.4708 26.4 9.01737
      vertex 7.15218 24.55 9.04865
      vertex 8.3184 24.55 9.03766
    endloop
  endfacet
  facet normal 0.00942457 1.10758e-06 0.999956
    outer loop
      vertex 4.94188 26.4 9.06948
      vertex 7.15218 24.55 9.04865
      vertex 10.4708 26.4 9.01737
    endloop
  endfacet
  facet normal 0.00942364 0 0.999956
    outer loop
      vertex 7.15218 24.55 9.04865
      vertex 4.94188 26.4 9.06948
      vertex 4.94188 24.55 9.06948
    endloop
  endfacet
  facet normal 0.00942627 0 0.999956
    outer loop
      vertex 8.3184 1.85 9.03766
      vertex 10.4708 0 9.01737
      vertex 10.4708 1.85 9.01737
    endloop
  endfacet
  facet normal 0.00942319 -0 0.999956
    outer loop
      vertex 7.15218 1.85 9.04865
      vertex 8.3184 1.85 9.03766
      vertex 7.15218 24.55 9.04865
    endloop
  endfacet
  facet normal 0.00942319 -3.58166e-06 0.999956
    outer loop
      vertex 7.15218 1.85 9.04865
      vertex 10.4708 0 9.01737
      vertex 8.3184 1.85 9.03766
    endloop
  endfacet
  facet normal 0.00942364 -0 0.999956
    outer loop
      vertex 4.94188 0 9.06948
      vertex 7.15218 1.85 9.04865
      vertex 4.94188 1.85 9.06948
    endloop
  endfacet
  facet normal 0.00942457 -1.10758e-06 0.999956
    outer loop
      vertex 7.15218 1.85 9.04865
      vertex 4.94188 0 9.06948
      vertex 10.4708 0 9.01737
    endloop
  endfacet
  facet normal 0.00313512 0 0.999995
    outer loop
      vertex 16 26.4 9
      vertex 15.3525 24.55 9.00203
      vertex 16 24.55 9
    endloop
  endfacet
  facet normal 0.00314507 0 0.999995
    outer loop
      vertex 15.3525 24.55 9.00203
      vertex 14.1856 24.55 9.0057
      vertex 15.3525 1.85 9.00203
    endloop
  endfacet
  facet normal 0.00314507 -3.48253e-06 0.999995
    outer loop
      vertex 16 26.4 9
      vertex 14.1856 24.55 9.0057
      vertex 15.3525 24.55 9.00203
    endloop
  endfacet
  facet normal 0.00314149 3.05013e-08 0.999995
    outer loop
      vertex 10.4708 26.4 9.01737
      vertex 14.1856 24.55 9.0057
      vertex 16 26.4 9
    endloop
  endfacet
  facet normal 0.00314615 0 0.999995
    outer loop
      vertex 11.8353 24.55 9.01308
      vertex 10.6688 24.55 9.01675
      vertex 11.8353 1.85 9.01308
    endloop
  endfacet
  facet normal 0.00314001 -2.93854e-06 0.999995
    outer loop
      vertex 14.1856 24.55 9.0057
      vertex 10.4708 26.4 9.01737
      vertex 11.8353 24.55 9.01308
    endloop
  endfacet
  facet normal 0.00314615 1.58941e-06 0.999995
    outer loop
      vertex 11.8353 24.55 9.01308
      vertex 10.4708 26.4 9.01737
      vertex 10.6688 24.55 9.01675
    endloop
  endfacet
  facet normal 0.0031313 0 0.999995
    outer loop
      vertex 10.6688 24.55 9.01675
      vertex 10.4708 26.4 9.01737
      vertex 10.4708 24.55 9.01737
    endloop
  endfacet
  facet normal 0.00313512 0 0.999995
    outer loop
      vertex 15.3525 1.85 9.00203
      vertex 16 0 9
      vertex 16 1.85 9
    endloop
  endfacet
  facet normal 0.00314507 -0 0.999995
    outer loop
      vertex 14.1856 1.85 9.0057
      vertex 15.3525 1.85 9.00203
      vertex 14.1856 24.55 9.0057
    endloop
  endfacet
  facet normal 0.00314507 3.48253e-06 0.999995
    outer loop
      vertex 14.1856 1.85 9.0057
      vertex 16 0 9
      vertex 15.3525 1.85 9.00203
    endloop
  endfacet
  facet normal 0.00314001 2.93854e-06 0.999995
    outer loop
      vertex 10.4708 0 9.01737
      vertex 14.1856 1.85 9.0057
      vertex 11.8353 1.85 9.01308
    endloop
  endfacet
  facet normal 0.00314615 -0 0.999995
    outer loop
      vertex 10.6688 1.85 9.01675
      vertex 11.8353 1.85 9.01308
      vertex 10.6688 24.55 9.01675
    endloop
  endfacet
  facet normal 0.00314615 -1.58941e-06 0.999995
    outer loop
      vertex 10.4708 0 9.01737
      vertex 11.8353 1.85 9.01308
      vertex 10.6688 1.85 9.01675
    endloop
  endfacet
  facet normal 0.0031313 -0 0.999995
    outer loop
      vertex 10.4708 0 9.01737
      vertex 10.6688 1.85 9.01675
      vertex 10.4708 1.85 9.01737
    endloop
  endfacet
  facet normal 0.00314149 -3.05013e-08 0.999995
    outer loop
      vertex 14.1856 1.85 9.0057
      vertex 10.4708 0 9.01737
      vertex 16 0 9
    endloop
  endfacet
  facet normal 0.0157225 0 0.999876
    outer loop
      vertex 4.94188 26.4 9.06948
      vertex 4.80197 24.55 9.07168
      vertex 4.94188 24.55 9.06948
    endloop
  endfacet
  facet normal 0.0157023 0 0.999877
    outer loop
      vertex 4.80197 24.55 9.07168
      vertex 3.63604 24.55 9.08999
      vertex 4.80197 1.85 9.07168
    endloop
  endfacet
  facet normal 0.0157023 1.52691e-06 0.999877
    outer loop
      vertex 4.94188 26.4 9.06948
      vertex 3.63604 24.55 9.08999
      vertex 4.80197 24.55 9.07168
    endloop
  endfacet
  facet normal 0.0157079 -2.44962e-06 0.999877
    outer loop
      vertex 4.94188 26.4 9.06948
      vertex 1.28592 24.55 9.12691
      vertex 3.63604 24.55 9.08999
    endloop
  endfacet
  facet normal 0.0157067 0 0.999877
    outer loop
      vertex 1.28592 24.55 9.12691
      vertex 0 26.4 9.14711
      vertex 1.28592 1.85 9.12691
    endloop
  endfacet
  facet normal 0.0157067 -6.99942e-10 0.999877
    outer loop
      vertex 0 26.4 9.14711
      vertex 1.28592 24.55 9.12691
      vertex 4.94188 26.4 9.06948
    endloop
  endfacet
  facet normal 0.0157225 0 0.999876
    outer loop
      vertex 4.80197 1.85 9.07168
      vertex 4.94188 0 9.06948
      vertex 4.94188 1.85 9.06948
    endloop
  endfacet
  facet normal 0.0157023 -0 0.999877
    outer loop
      vertex 3.63604 1.85 9.08999
      vertex 4.80197 1.85 9.07168
      vertex 3.63604 24.55 9.08999
    endloop
  endfacet
  facet normal 0.0157023 -1.52691e-06 0.999877
    outer loop
      vertex 3.63604 1.85 9.08999
      vertex 4.94188 0 9.06948
      vertex 4.80197 1.85 9.07168
    endloop
  endfacet
  facet normal 0.0157079 2.44962e-06 0.999877
    outer loop
      vertex 1.28592 1.85 9.12691
      vertex 4.94188 0 9.06948
      vertex 3.63604 1.85 9.08999
    endloop
  endfacet
  facet normal 0.0157067 6.99942e-10 0.999877
    outer loop
      vertex 1.28592 1.85 9.12691
      vertex 0 0 9.14711
      vertex 4.94188 0 9.06948
    endloop
  endfacet
  facet normal 0.0157067 -0 0.999877
    outer loop
      vertex 0 0 9.14711
      vertex 1.28592 1.85 9.12691
      vertex 0 26.4 9.14711
    endloop
  endfacet
  facet normal -0.0345487 0 0.999403
    outer loop
      vertex 49.1674 26.4 9.62526
      vertex 47.0126 24.55 9.55077
      vertex 49.1674 24.55 9.62526
    endloop
  endfacet
  facet normal -0.0345451 0 0.999403
    outer loop
      vertex 47.0126 24.55 9.55077
      vertex 45.8441 24.55 9.51038
      vertex 47.0126 1.85 9.55077
    endloop
  endfacet
  facet normal -0.0345451 -4.25008e-06 0.999403
    outer loop
      vertex 49.1674 26.4 9.62526
      vertex 45.8441 24.55 9.51038
      vertex 47.0126 24.55 9.55077
    endloop
  endfacet
  facet normal -0.0345493 3.38322e-06 0.999403
    outer loop
      vertex 43.6415 26.4 9.43423
      vertex 45.8441 24.55 9.51038
      vertex 49.1674 26.4 9.62526
    endloop
  endfacet
  facet normal -0.0345521 0 0.999403
    outer loop
      vertex 45.8441 24.55 9.51038
      vertex 43.6415 26.4 9.43423
      vertex 43.6415 24.55 9.43423
    endloop
  endfacet
  facet normal -0.0345487 0 0.999403
    outer loop
      vertex 47.0126 1.85 9.55077
      vertex 49.1674 0 9.62526
      vertex 49.1674 1.85 9.62526
    endloop
  endfacet
  facet normal -0.0345451 0 0.999403
    outer loop
      vertex 45.8441 1.85 9.51038
      vertex 47.0126 1.85 9.55077
      vertex 45.8441 24.55 9.51038
    endloop
  endfacet
  facet normal -0.0345451 4.25008e-06 0.999403
    outer loop
      vertex 45.8441 1.85 9.51038
      vertex 49.1674 0 9.62526
      vertex 47.0126 1.85 9.55077
    endloop
  endfacet
  facet normal -0.0345521 0 0.999403
    outer loop
      vertex 43.6415 0 9.43423
      vertex 45.8441 1.85 9.51038
      vertex 43.6415 1.85 9.43423
    endloop
  endfacet
  facet normal -0.0345493 -3.38322e-06 0.999403
    outer loop
      vertex 45.8441 1.85 9.51038
      vertex 43.6415 0 9.43423
      vertex 49.1674 0 9.62526
    endloop
  endfacet
  facet normal -0.021986 0 0.999758
    outer loop
      vertex 38.1145 26.4 9.27791
      vertex 36.4593 24.55 9.24151
      vertex 38.1145 24.55 9.27791
    endloop
  endfacet
  facet normal -0.0219962 0 0.999758
    outer loop
      vertex 36.4593 24.55 9.24151
      vertex 35.2912 24.55 9.21581
      vertex 36.4593 1.85 9.24151
    endloop
  endfacet
  facet normal -0.0219962 9.16027e-06 0.999758
    outer loop
      vertex 38.1145 26.4 9.27791
      vertex 35.2912 24.55 9.21581
      vertex 36.4593 24.55 9.24151
    endloop
  endfacet
  facet normal -0.0219886 -2.51987e-06 0.999758
    outer loop
      vertex 32.5866 26.4 9.15633
      vertex 35.2912 24.55 9.21581
      vertex 38.1145 26.4 9.27791
    endloop
  endfacet
  facet normal -0.0219789 0 0.999758
    outer loop
      vertex 32.9414 24.55 9.16413
      vertex 32.5866 26.4 9.15633
      vertex 32.9414 1.85 9.16413
    endloop
  endfacet
  facet normal -0.021988 -1.75338e-06 0.999758
    outer loop
      vertex 35.2912 24.55 9.21581
      vertex 32.5866 26.4 9.15633
      vertex 32.9414 24.55 9.16413
    endloop
  endfacet
  facet normal -0.021986 0 0.999758
    outer loop
      vertex 36.4593 1.85 9.24151
      vertex 38.1145 0 9.27791
      vertex 38.1145 1.85 9.27791
    endloop
  endfacet
  facet normal -0.0219962 0 0.999758
    outer loop
      vertex 35.2912 1.85 9.21581
      vertex 36.4593 1.85 9.24151
      vertex 35.2912 24.55 9.21581
    endloop
  endfacet
  facet normal -0.0219962 -9.16027e-06 0.999758
    outer loop
      vertex 35.2912 1.85 9.21581
      vertex 38.1145 0 9.27791
      vertex 36.4593 1.85 9.24151
    endloop
  endfacet
  facet normal -0.021988 1.75338e-06 0.999758
    outer loop
      vertex 32.5866 0 9.15633
      vertex 35.2912 1.85 9.21581
      vertex 32.9414 1.85 9.16413
    endloop
  endfacet
  facet normal -0.0219886 2.51987e-06 0.999758
    outer loop
      vertex 35.2912 1.85 9.21581
      vertex 32.5866 0 9.15633
      vertex 38.1145 0 9.27791
    endloop
  endfacet
  facet normal -0.0219789 0 0.999758
    outer loop
      vertex 32.5866 0 9.15633
      vertex 32.9414 1.85 9.16413
      vertex 32.5866 26.4 9.15633
    endloop
  endfacet
  facet normal -0.0659063 0 0.997826
    outer loop
      vertex 76.7728 26.4 11.101
      vertex 75.1407 24.55 10.9932
      vertex 76.7728 24.55 11.101
    endloop
  endfacet
  facet normal -0.065992 0 0.99782
    outer loop
      vertex 75.1407 24.55 10.9932
      vertex 73.9719 24.55 10.9159
      vertex 75.1407 1.85 10.9932
    endloop
  endfacet
  facet normal -0.065992 7.59989e-05 0.99782
    outer loop
      vertex 76.7728 26.4 11.101
      vertex 73.9719 24.55 10.9159
      vertex 75.1407 24.55 10.9932
    endloop
  endfacet
  facet normal -0.0659236 -2.80734e-05 0.997825
    outer loop
      vertex 71.2557 26.4 10.7365
      vertex 73.9719 24.55 10.9159
      vertex 76.7728 26.4 11.101
    endloop
  endfacet
  facet normal -0.0658942 0 0.997827
    outer loop
      vertex 71.6267 24.55 10.761
      vertex 71.2557 26.4 10.7365
      vertex 71.6267 1.85 10.761
    endloop
  endfacet
  facet normal -0.0659062 -2.41486e-06 0.997826
    outer loop
      vertex 73.9719 24.55 10.9159
      vertex 71.2557 26.4 10.7365
      vertex 71.6267 24.55 10.761
    endloop
  endfacet
  facet normal -0.0659063 0 0.997826
    outer loop
      vertex 75.1407 1.85 10.9932
      vertex 76.7728 0 11.101
      vertex 76.7728 1.85 11.101
    endloop
  endfacet
  facet normal -0.065992 0 0.99782
    outer loop
      vertex 73.9719 1.85 10.9159
      vertex 75.1407 1.85 10.9932
      vertex 73.9719 24.55 10.9159
    endloop
  endfacet
  facet normal -0.065992 -7.59989e-05 0.99782
    outer loop
      vertex 73.9719 1.85 10.9159
      vertex 76.7728 0 11.101
      vertex 75.1407 1.85 10.9932
    endloop
  endfacet
  facet normal -0.0659062 2.41486e-06 0.997826
    outer loop
      vertex 71.2557 0 10.7365
      vertex 73.9719 1.85 10.9159
      vertex 71.6267 1.85 10.761
    endloop
  endfacet
  facet normal -0.0659236 2.80734e-05 0.997825
    outer loop
      vertex 73.9719 1.85 10.9159
      vertex 71.2557 0 10.7365
      vertex 76.7728 0 11.101
    endloop
  endfacet
  facet normal -0.0658942 0 0.997827
    outer loop
      vertex 71.2557 0 10.7365
      vertex 71.6267 1.85 10.761
      vertex 71.2557 26.4 10.7365
    endloop
  endfacet
  facet normal -0.0596828 0 0.998217
    outer loop
      vertex 71.2557 26.4 10.7365
      vertex 70.4579 24.55 10.6888
      vertex 71.2557 0 10.7365
    endloop
  endfacet
  facet normal -0.0596473 -1.53965e-05 0.99822
    outer loop
      vertex 71.2557 26.4 10.7365
      vertex 68.1116 24.55 10.5486
      vertex 70.4579 24.55 10.6888
    endloop
  endfacet
  facet normal -0.0597034 0 0.998216
    outer loop
      vertex 68.1116 24.55 10.5486
      vertex 66.9429 24.55 10.4787
      vertex 68.1116 1.85 10.5486
    endloop
  endfacet
  facet normal -0.0596645 1.4012e-05 0.998218
    outer loop
      vertex 65.7363 26.4 10.4066
      vertex 68.1116 24.55 10.5486
      vertex 71.2557 26.4 10.7365
    endloop
  endfacet
  facet normal -0.0597034 -3.60441e-05 0.998216
    outer loop
      vertex 68.1116 24.55 10.5486
      vertex 65.7363 26.4 10.4066
      vertex 66.9429 24.55 10.4787
    endloop
  endfacet
  facet normal -0.0596483 0 0.998219
    outer loop
      vertex 66.9429 24.55 10.4787
      vertex 65.7363 26.4 10.4066
      vertex 65.7363 24.55 10.4066
    endloop
  endfacet
  facet normal -0.0596828 0 0.998217
    outer loop
      vertex 70.4579 1.85 10.6888
      vertex 71.2557 0 10.7365
      vertex 70.4579 24.55 10.6888
    endloop
  endfacet
  facet normal -0.0596473 1.53965e-05 0.99822
    outer loop
      vertex 68.1116 1.85 10.5486
      vertex 71.2557 0 10.7365
      vertex 70.4579 1.85 10.6888
    endloop
  endfacet
  facet normal -0.0597034 0 0.998216
    outer loop
      vertex 66.9429 1.85 10.4787
      vertex 68.1116 1.85 10.5486
      vertex 66.9429 24.55 10.4787
    endloop
  endfacet
  facet normal -0.0597034 3.60441e-05 0.998216
    outer loop
      vertex 65.7363 0 10.4066
      vertex 68.1116 1.85 10.5486
      vertex 66.9429 1.85 10.4787
    endloop
  endfacet
  facet normal -0.0596483 0 0.998219
    outer loop
      vertex 65.7363 0 10.4066
      vertex 66.9429 1.85 10.4787
      vertex 65.7363 1.85 10.4066
    endloop
  endfacet
  facet normal -0.0596645 -1.4012e-05 0.998218
    outer loop
      vertex 68.1116 1.85 10.5486
      vertex 65.7363 0 10.4066
      vertex 71.2557 0 10.7365
    endloop
  endfacet
  facet normal -0.00942094 0 0.999956
    outer loop
      vertex 27.0581 26.4 9.06948
      vertex 25.9054 24.55 9.05862
      vertex 27.0581 24.55 9.06948
    endloop
  endfacet
  facet normal -0.00942918 0 0.999956
    outer loop
      vertex 25.9054 24.55 9.05862
      vertex 24.7378 24.55 9.04761
      vertex 25.9054 1.85 9.05862
    endloop
  endfacet
  facet normal -0.00942918 5.13435e-06 0.999956
    outer loop
      vertex 27.0581 26.4 9.06948
      vertex 24.7378 24.55 9.04761
      vertex 25.9054 24.55 9.05862
    endloop
  endfacet
  facet normal -0.0094246 -6.07102e-07 0.999956
    outer loop
      vertex 21.5292 26.4 9.01737
      vertex 24.7378 24.55 9.04761
      vertex 27.0581 26.4 9.06948
    endloop
  endfacet
  facet normal -0.00942409 0 0.999956
    outer loop
      vertex 22.3876 24.55 9.02546
      vertex 21.5292 26.4 9.01737
      vertex 22.3876 1.85 9.02546
    endloop
  endfacet
  facet normal -0.00942431 -1.01654e-07 0.999956
    outer loop
      vertex 24.7378 24.55 9.04761
      vertex 21.5292 26.4 9.01737
      vertex 22.3876 24.55 9.02546
    endloop
  endfacet
  facet normal -0.00942094 0 0.999956
    outer loop
      vertex 25.9054 1.85 9.05862
      vertex 27.0581 0 9.06948
      vertex 27.0581 1.85 9.06948
    endloop
  endfacet
  facet normal -0.00942918 0 0.999956
    outer loop
      vertex 24.7378 1.85 9.04761
      vertex 25.9054 1.85 9.05862
      vertex 24.7378 24.55 9.04761
    endloop
  endfacet
  facet normal -0.00942918 -5.13435e-06 0.999956
    outer loop
      vertex 24.7378 1.85 9.04761
      vertex 27.0581 0 9.06948
      vertex 25.9054 1.85 9.05862
    endloop
  endfacet
  facet normal -0.00942431 1.01654e-07 0.999956
    outer loop
      vertex 21.5292 0 9.01737
      vertex 24.7378 1.85 9.04761
      vertex 22.3876 1.85 9.02546
    endloop
  endfacet
  facet normal -0.0094246 6.07102e-07 0.999956
    outer loop
      vertex 24.7378 1.85 9.04761
      vertex 21.5292 0 9.01737
      vertex 27.0581 0 9.06948
    endloop
  endfacet
  facet normal -0.00942409 0 0.999956
    outer loop
      vertex 21.5292 0 9.01737
      vertex 22.3876 1.85 9.02546
      vertex 21.5292 26.4 9.01737
    endloop
  endfacet
  facet normal -0.0470957 0 0.99889
    outer loop
      vertex 60.215 26.4 10.1115
      vertex 59.9117 24.55 10.0972
      vertex 60.215 0 10.1115
    endloop
  endfacet
  facet normal -0.0471194 3.89466e-06 0.998889
    outer loop
      vertex 60.215 26.4 10.1115
      vertex 57.5639 24.55 9.98645
      vertex 59.9117 24.55 10.0972
    endloop
  endfacet
  facet normal -0.0471026 0 0.99889
    outer loop
      vertex 57.5639 24.55 9.98645
      vertex 56.3952 24.55 9.93134
      vertex 57.5639 1.85 9.98645
    endloop
  endfacet
  facet normal -0.0471096 -1.02773e-05 0.99889
    outer loop
      vertex 54.6919 26.4 9.85102
      vertex 57.5639 24.55 9.98645
      vertex 60.215 26.4 10.1115
    endloop
  endfacet
  facet normal -0.0471026 5.17903e-07 0.99889
    outer loop
      vertex 57.5639 24.55 9.98645
      vertex 54.6919 26.4 9.85102
      vertex 56.3952 24.55 9.93134
    endloop
  endfacet
  facet normal -0.0471032 0 0.99889
    outer loop
      vertex 56.3952 24.55 9.93134
      vertex 54.6919 26.4 9.85102
      vertex 54.6919 24.55 9.85102
    endloop
  endfacet
  facet normal -0.0470957 0 0.99889
    outer loop
      vertex 59.9117 1.85 10.0972
      vertex 60.215 0 10.1115
      vertex 59.9117 24.55 10.0972
    endloop
  endfacet
  facet normal -0.0471194 -3.89466e-06 0.998889
    outer loop
      vertex 57.5639 1.85 9.98645
      vertex 60.215 0 10.1115
      vertex 59.9117 1.85 10.0972
    endloop
  endfacet
  facet normal -0.0471026 0 0.99889
    outer loop
      vertex 56.3952 1.85 9.93134
      vertex 57.5639 1.85 9.98645
      vertex 56.3952 24.55 9.93134
    endloop
  endfacet
  facet normal -0.0471026 -5.17903e-07 0.99889
    outer loop
      vertex 54.6919 0 9.85102
      vertex 57.5639 1.85 9.98645
      vertex 56.3952 1.85 9.93134
    endloop
  endfacet
  facet normal -0.0471032 0 0.99889
    outer loop
      vertex 54.6919 0 9.85102
      vertex 56.3952 1.85 9.93134
      vertex 54.6919 1.85 9.85102
    endloop
  endfacet
  facet normal -0.0471096 1.02773e-05 0.99889
    outer loop
      vertex 57.5639 1.85 9.98645
      vertex 54.6919 0 9.85102
      vertex 60.215 0 10.1115
    endloop
  endfacet
  facet normal -0.0721905 0 0.997391
    outer loop
      vertex 82.2876 26.4 11.5002
      vertex 82.1674 24.55 11.4915
      vertex 82.2876 24.55 11.5002
    endloop
  endfacet
  facet normal -0.0721931 0 0.997391
    outer loop
      vertex 82.1674 24.55 11.4915
      vertex 80.9986 24.55 11.4069
      vertex 82.1674 1.85 11.4915
    endloop
  endfacet
  facet normal -0.0721931 1.66056e-07 0.997391
    outer loop
      vertex 82.2876 26.4 11.5002
      vertex 80.9986 24.55 11.4069
      vertex 82.1674 24.55 11.4915
    endloop
  endfacet
  facet normal -0.0721994 4.62479e-06 0.99739
    outer loop
      vertex 82.2876 26.4 11.5002
      vertex 78.6543 24.55 11.2372
      vertex 80.9986 24.55 11.4069
    endloop
  endfacet
  facet normal -0.0722115 0 0.997389
    outer loop
      vertex 78.6543 24.55 11.2372
      vertex 77.4858 24.55 11.1526
      vertex 78.6543 1.85 11.2372
    endloop
  endfacet
  facet normal -0.0721981 2.04906e-06 0.99739
    outer loop
      vertex 76.7728 26.4 11.101
      vertex 78.6543 24.55 11.2372
      vertex 82.2876 26.4 11.5002
    endloop
  endfacet
  facet normal -0.0722115 -1.16269e-05 0.997389
    outer loop
      vertex 78.6543 24.55 11.2372
      vertex 76.7728 26.4 11.101
      vertex 77.4858 24.55 11.1526
    endloop
  endfacet
  facet normal -0.0721815 0 0.997392
    outer loop
      vertex 77.4858 24.55 11.1526
      vertex 76.7728 26.4 11.101
      vertex 76.7728 24.55 11.101
    endloop
  endfacet
  facet normal -0.0721905 0 0.997391
    outer loop
      vertex 82.1674 1.85 11.4915
      vertex 82.2876 0 11.5002
      vertex 82.2876 1.85 11.5002
    endloop
  endfacet
  facet normal -0.0721931 0 0.997391
    outer loop
      vertex 80.9986 1.85 11.4069
      vertex 82.1674 1.85 11.4915
      vertex 80.9986 24.55 11.4069
    endloop
  endfacet
  facet normal -0.0721931 -1.66056e-07 0.997391
    outer loop
      vertex 80.9986 1.85 11.4069
      vertex 82.2876 0 11.5002
      vertex 82.1674 1.85 11.4915
    endloop
  endfacet
  facet normal -0.0721994 -4.62479e-06 0.99739
    outer loop
      vertex 78.6543 1.85 11.2372
      vertex 82.2876 0 11.5002
      vertex 80.9986 1.85 11.4069
    endloop
  endfacet
  facet normal -0.0722115 0 0.997389
    outer loop
      vertex 77.4858 1.85 11.1526
      vertex 78.6543 1.85 11.2372
      vertex 77.4858 24.55 11.1526
    endloop
  endfacet
  facet normal -0.0722115 1.16269e-05 0.997389
    outer loop
      vertex 76.7728 0 11.101
      vertex 78.6543 1.85 11.2372
      vertex 77.4858 1.85 11.1526
    endloop
  endfacet
  facet normal -0.0721815 0 0.997392
    outer loop
      vertex 76.7728 0 11.101
      vertex 77.4858 1.85 11.1526
      vertex 76.7728 1.85 11.101
    endloop
  endfacet
  facet normal -0.0721981 -2.04906e-06 0.99739
    outer loop
      vertex 78.6543 1.85 11.2372
      vertex 76.7728 0 11.101
      vertex 82.2876 0 11.5002
    endloop
  endfacet
  facet normal -0.0282867 0 0.9996
    outer loop
      vertex 43.6415 26.4 9.43423
      vertex 43.4952 24.55 9.43009
      vertex 43.6415 24.55 9.43423
    endloop
  endfacet
  facet normal -0.0282728 0 0.9996
    outer loop
      vertex 43.4952 24.55 9.43009
      vertex 42.3267 24.55 9.39704
      vertex 43.4952 1.85 9.43009
    endloop
  endfacet
  facet normal -0.0282728 -1.09822e-06 0.9996
    outer loop
      vertex 43.6415 26.4 9.43423
      vertex 42.3267 24.55 9.39704
      vertex 43.4952 24.55 9.43009
    endloop
  endfacet
  facet normal -0.0282713 -2.17211e-06 0.9996
    outer loop
      vertex 43.6415 26.4 9.43423
      vertex 39.9772 24.55 9.33059
      vertex 42.3267 24.55 9.39704
    endloop
  endfacet
  facet normal -0.028263 0 0.999601
    outer loop
      vertex 39.9772 24.55 9.33059
      vertex 38.809 24.55 9.29756
      vertex 39.9772 1.85 9.33059
    endloop
  endfacet
  facet normal -0.0282717 -1.45703e-06 0.9996
    outer loop
      vertex 38.1145 26.4 9.27791
      vertex 39.9772 24.55 9.33059
      vertex 43.6415 26.4 9.43423
    endloop
  endfacet
  facet normal -0.028263 7.30562e-06 0.999601
    outer loop
      vertex 39.9772 24.55 9.33059
      vertex 38.1145 26.4 9.27791
      vertex 38.809 24.55 9.29756
    endloop
  endfacet
  facet normal -0.0282824 0 0.9996
    outer loop
      vertex 38.809 24.55 9.29756
      vertex 38.1145 26.4 9.27791
      vertex 38.1145 24.55 9.27791
    endloop
  endfacet
  facet normal -0.0282867 0 0.9996
    outer loop
      vertex 43.4952 1.85 9.43009
      vertex 43.6415 0 9.43423
      vertex 43.6415 1.85 9.43423
    endloop
  endfacet
  facet normal -0.0282728 0 0.9996
    outer loop
      vertex 42.3267 1.85 9.39704
      vertex 43.4952 1.85 9.43009
      vertex 42.3267 24.55 9.39704
    endloop
  endfacet
  facet normal -0.0282728 1.09822e-06 0.9996
    outer loop
      vertex 42.3267 1.85 9.39704
      vertex 43.6415 0 9.43423
      vertex 43.4952 1.85 9.43009
    endloop
  endfacet
  facet normal -0.0282713 2.17211e-06 0.9996
    outer loop
      vertex 39.9772 1.85 9.33059
      vertex 43.6415 0 9.43423
      vertex 42.3267 1.85 9.39704
    endloop
  endfacet
  facet normal -0.028263 0 0.999601
    outer loop
      vertex 38.809 1.85 9.29756
      vertex 39.9772 1.85 9.33059
      vertex 38.809 24.55 9.29756
    endloop
  endfacet
  facet normal -0.028263 -7.30562e-06 0.999601
    outer loop
      vertex 38.1145 0 9.27791
      vertex 39.9772 1.85 9.33059
      vertex 38.809 1.85 9.29756
    endloop
  endfacet
  facet normal -0.0282824 0 0.9996
    outer loop
      vertex 38.1145 0 9.27791
      vertex 38.809 1.85 9.29756
      vertex 38.1145 1.85 9.27791
    endloop
  endfacet
  facet normal -0.0282717 1.45703e-06 0.9996
    outer loop
      vertex 39.9772 1.85 9.33059
      vertex 38.1145 0 9.27791
      vertex 43.6415 0 9.43423
    endloop
  endfacet
  facet normal -0.999996 0 -0.00282323
    outer loop
      vertex 3.65999 1.85 0.606826
      vertex 3.63604 24.55 9.08999
      vertex 3.65999 24.55 0.606826
    endloop
  endfacet
  facet normal -0.999996 -0 -0.00282323
    outer loop
      vertex 3.63604 24.55 9.08999
      vertex 3.65999 1.85 0.606826
      vertex 3.63604 1.85 9.08999
    endloop
  endfacet
  facet normal -0.00282383 0 0.999996
    outer loop
      vertex 1.31 24.55 0.60019
      vertex 3.65999 1.85 0.606826
      vertex 3.65999 24.55 0.606826
    endloop
  endfacet
  facet normal -0.00282383 0 0.999996
    outer loop
      vertex 3.65999 1.85 0.606826
      vertex 1.31 24.55 0.60019
      vertex 1.31 1.85 0.60019
    endloop
  endfacet
  facet normal 0.999996 -0 0.00282405
    outer loop
      vertex 1.28592 1.85 9.12691
      vertex 1.31 24.55 0.60019
      vertex 1.28592 24.55 9.12691
    endloop
  endfacet
  facet normal 0.999996 0 0.00282405
    outer loop
      vertex 1.31 24.55 0.60019
      vertex 1.28592 1.85 9.12691
      vertex 1.31 1.85 0.60019
    endloop
  endfacet
  facet normal 0 -1 0
    outer loop
      vertex 1.31 24.55 0.60019
      vertex 3.63604 24.55 9.08999
      vertex 1.28592 24.55 9.12691
    endloop
  endfacet
  facet normal 0 -1 -0
    outer loop
      vertex 3.63604 24.55 9.08999
      vertex 1.31 24.55 0.60019
      vertex 3.65999 24.55 0.606826
    endloop
  endfacet
  facet normal 0 1 0
    outer loop
      vertex 1.31 1.85 0.60019
      vertex 3.63604 1.85 9.08999
      vertex 3.65999 1.85 0.606826
    endloop
  endfacet
  facet normal 0 1 0
    outer loop
      vertex 3.63604 1.85 9.08999
      vertex 1.31 1.85 0.60019
      vertex 1.28592 1.85 9.12691
    endloop
  endfacet
  facet normal -0.999976 0 -0.0068574
    outer loop
      vertex 7.20992 1.85 0.628752
      vertex 7.15218 24.55 9.04865
      vertex 7.20992 24.55 0.628752
    endloop
  endfacet
  facet normal -0.999976 -0 -0.0068574
    outer loop
      vertex 7.15218 24.55 9.04865
      vertex 7.20992 1.85 0.628752
      vertex 7.15218 1.85 9.04865
    endloop
  endfacet
  facet normal -0.00685789 0 0.999976
    outer loop
      vertex 4.85998 24.55 0.612636
      vertex 7.20992 1.85 0.628752
      vertex 7.20992 24.55 0.628752
    endloop
  endfacet
  facet normal -0.00685789 0 0.999976
    outer loop
      vertex 7.20992 1.85 0.628752
      vertex 4.85998 24.55 0.612636
      vertex 4.85998 1.85 0.612636
    endloop
  endfacet
  facet normal 0.999976 -0 0.00685759
    outer loop
      vertex 4.80197 1.85 9.07168
      vertex 4.85998 24.55 0.612636
      vertex 4.80197 24.55 9.07168
    endloop
  endfacet
  facet normal 0.999976 0 0.00685759
    outer loop
      vertex 4.85998 24.55 0.612636
      vertex 4.80197 1.85 9.07168
      vertex 4.85998 1.85 0.612636
    endloop
  endfacet
  facet normal 0 -1 0
    outer loop
      vertex 4.94188 24.55 9.06948
      vertex 7.20992 24.55 0.628752
      vertex 7.15218 24.55 9.04865
    endloop
  endfacet
  facet normal 0 -1 0
    outer loop
      vertex 4.85998 24.55 0.612636
      vertex 4.94188 24.55 9.06948
      vertex 4.80197 24.55 9.07168
    endloop
  endfacet
  facet normal 0 -1 -0
    outer loop
      vertex 4.94188 24.55 9.06948
      vertex 4.85998 24.55 0.612636
      vertex 7.20992 24.55 0.628752
    endloop
  endfacet
  facet normal 0 1 0
    outer loop
      vertex 7.20992 1.85 0.628752
      vertex 4.94188 1.85 9.06948
      vertex 7.15218 1.85 9.04865
    endloop
  endfacet
  facet normal 0 1 0
    outer loop
      vertex 4.85998 1.85 0.612636
      vertex 4.94188 1.85 9.06948
      vertex 7.20992 1.85 0.628752
    endloop
  endfacet
  facet normal 0 1 0
    outer loop
      vertex 4.94188 1.85 9.06948
      vertex 4.85998 1.85 0.612636
      vertex 4.80197 1.85 9.07168
    endloop
  endfacet
  facet normal -0.999941 0 -0.0108833
    outer loop
      vertex 10.7597 1.85 0.664997
      vertex 10.6688 24.55 9.01675
      vertex 10.7597 24.55 0.664997
    endloop
  endfacet
  facet normal -0.999941 -0 -0.0108833
    outer loop
      vertex 10.6688 24.55 9.01675
      vertex 10.7597 1.85 0.664997
      vertex 10.6688 1.85 9.01675
    endloop
  endfacet
  facet normal -0.0108921 0 0.999941
    outer loop
      vertex 8.40988 24.55 0.639401
      vertex 10.7597 1.85 0.664997
      vertex 10.7597 24.55 0.664997
    endloop
  endfacet
  facet normal -0.0108921 0 0.999941
    outer loop
      vertex 10.7597 1.85 0.664997
      vertex 8.40988 24.55 0.639401
      vertex 8.40988 1.85 0.639401
    endloop
  endfacet
  facet normal 0.999941 -0 0.0108921
    outer loop
      vertex 8.3184 1.85 9.03766
      vertex 8.40988 24.55 0.639401
      vertex 8.3184 24.55 9.03766
    endloop
  endfacet
  facet normal 0.999941 0 0.0108921
    outer loop
      vertex 8.40988 24.55 0.639401
      vertex 8.3184 1.85 9.03766
      vertex 8.40988 1.85 0.639401
    endloop
  endfacet
  facet normal 0 -1 0
    outer loop
      vertex 10.4708 24.55 9.01737
      vertex 10.7597 24.55 0.664997
      vertex 10.6688 24.55 9.01675
    endloop
  endfacet
  facet normal 0 -1 0
    outer loop
      vertex 8.40988 24.55 0.639401
      vertex 10.4708 24.55 9.01737
      vertex 8.3184 24.55 9.03766
    endloop
  endfacet
  facet normal 0 -1 -0
    outer loop
      vertex 10.4708 24.55 9.01737
      vertex 8.40988 24.55 0.639401
      vertex 10.7597 24.55 0.664997
    endloop
  endfacet
  facet normal 0 1 0
    outer loop
      vertex 10.7597 1.85 0.664997
      vertex 10.4708 1.85 9.01737
      vertex 10.6688 1.85 9.01675
    endloop
  endfacet
  facet normal 0 1 0
    outer loop
      vertex 8.40988 1.85 0.639401
      vertex 10.4708 1.85 9.01737
      vertex 10.7597 1.85 0.664997
    endloop
  endfacet
  facet normal 0 1 0
    outer loop
      vertex 10.4708 1.85 9.01737
      vertex 8.40988 1.85 0.639401
      vertex 8.3184 1.85 9.03766
    endloop
  endfacet
  facet normal 0 -1 0
    outer loop
      vertex 11.9596 24.55 0.680488
      vertex 14.1856 24.55 9.0057
      vertex 11.8353 24.55 9.01308
    endloop
  endfacet
  facet normal 0 -1 -0
    outer loop
      vertex 14.1856 24.55 9.0057
      vertex 11.9596 24.55 0.680488
      vertex 14.3094 24.55 0.715563
    endloop
  endfacet
  facet normal -0.999889 0 -0.0149317
    outer loop
      vertex 14.3094 1.85 0.715563
      vertex 14.1856 24.55 9.0057
      vertex 14.3094 24.55 0.715563
    endloop
  endfacet
  facet normal -0.999889 -0 -0.0149317
    outer loop
      vertex 14.1856 24.55 9.0057
      vertex 14.3094 1.85 0.715563
      vertex 14.1856 1.85 9.0057
    endloop
  endfacet
  facet normal -0.0149251 0 0.999889
    outer loop
      vertex 11.9596 24.55 0.680488
      vertex 14.3094 1.85 0.715563
      vertex 14.3094 24.55 0.715563
    endloop
  endfacet
  facet normal -0.0149251 0 0.999889
    outer loop
      vertex 14.3094 1.85 0.715563
      vertex 11.9596 24.55 0.680488
      vertex 11.9596 1.85 0.680488
    endloop
  endfacet
  facet normal 0.999889 -0 0.0149157
    outer loop
      vertex 11.8353 1.85 9.01308
      vertex 11.9596 24.55 0.680488
      vertex 11.8353 24.55 9.01308
    endloop
  endfacet
  facet normal 0.999889 0 0.0149157
    outer loop
      vertex 11.9596 24.55 0.680488
      vertex 11.8353 1.85 9.01308
      vertex 11.9596 1.85 0.680488
    endloop
  endfacet
  facet normal 0 1 0
    outer loop
      vertex 11.9596 1.85 0.680488
      vertex 14.1856 1.85 9.0057
      vertex 14.3094 1.85 0.715563
    endloop
  endfacet
  facet normal 0 1 0
    outer loop
      vertex 14.1856 1.85 9.0057
      vertex 11.9596 1.85 0.680488
      vertex 11.8353 1.85 9.01308
    endloop
  endfacet
  facet normal -0.99982 0 -0.0189634
    outer loop
      vertex 17.8588 1.85 0.780447
      vertex 17.7028 24.55 9.00535
      vertex 17.8588 24.55 0.780447
    endloop
  endfacet
  facet normal -0.99982 -0 -0.0189634
    outer loop
      vertex 17.7028 24.55 9.00535
      vertex 17.8588 1.85 0.780447
      vertex 17.7028 1.85 9.00535
    endloop
  endfacet
  facet normal -0.018959 0 0.99982
    outer loop
      vertex 15.5092 24.55 0.735893
      vertex 17.8588 1.85 0.780447
      vertex 17.8588 24.55 0.780447
    endloop
  endfacet
  facet normal -0.018959 0 0.99982
    outer loop
      vertex 17.8588 1.85 0.780447
      vertex 15.5092 24.55 0.735893
      vertex 15.5092 1.85 0.735893
    endloop
  endfacet
  facet normal 0.99982 -0 0.0189535
    outer loop
      vertex 15.3525 1.85 9.00203
      vertex 15.5092 24.55 0.735893
      vertex 15.3525 24.55 9.00203
    endloop
  endfacet
  facet normal 0.99982 0 0.0189535
    outer loop
      vertex 15.5092 24.55 0.735893
      vertex 15.3525 1.85 9.00203
      vertex 15.5092 1.85 0.735893
    endloop
  endfacet
  facet normal 0 -1 0
    outer loop
      vertex 15.5092 24.55 0.735893
      vertex 16 24.55 9
      vertex 15.3525 24.55 9.00203
    endloop
  endfacet
  facet normal 0 -1 -0
    outer loop
      vertex 16 24.55 9
      vertex 15.5092 24.55 0.735893
      vertex 17.8588 24.55 0.780447
    endloop
  endfacet
  facet normal 0 -1 -0
    outer loop
      vertex 17.7028 24.55 9.00535
      vertex 16 24.55 9
      vertex 17.8588 24.55 0.780447
    endloop
  endfacet
  facet normal 0 1 0
    outer loop
      vertex 15.5092 1.85 0.735893
      vertex 16 1.85 9
      vertex 17.8588 1.85 0.780447
    endloop
  endfacet
  facet normal 0 1 0
    outer loop
      vertex 16 1.85 9
      vertex 15.5092 1.85 0.735893
      vertex 15.3525 1.85 9.00203
    endloop
  endfacet
  facet normal 0 1 0
    outer loop
      vertex 17.7028 1.85 9.00535
      vertex 17.8588 1.85 0.780447
      vertex 16 1.85 9
    endloop
  endfacet
  facet normal -0.999736 0 -0.0229933
    outer loop
      vertex 21.4079 1.85 0.859651
      vertex 21.2203 24.55 9.0164
      vertex 21.4079 24.55 0.859651
    endloop
  endfacet
  facet normal -0.999736 -0 -0.0229933
    outer loop
      vertex 21.2203 24.55 9.0164
      vertex 21.4079 1.85 0.859651
      vertex 21.2203 1.85 9.0164
    endloop
  endfacet
  facet normal 0.999736 -0 0.0229844
    outer loop
      vertex 18.8699 1.85 9.00902
      vertex 19.0585 24.55 0.805618
      vertex 18.8699 24.55 9.00902
    endloop
  endfacet
  facet normal 0.999736 0 0.0229844
    outer loop
      vertex 19.0585 24.55 0.805618
      vertex 18.8699 1.85 9.00902
      vertex 19.0585 1.85 0.805618
    endloop
  endfacet
  facet normal -0.0229926 0 0.999736
    outer loop
      vertex 19.0585 24.55 0.805618
      vertex 21.4079 1.85 0.859651
      vertex 21.4079 24.55 0.859651
    endloop
  endfacet
  facet normal -0.0229926 0 0.999736
    outer loop
      vertex 21.4079 1.85 0.859651
      vertex 19.0585 24.55 0.805618
      vertex 19.0585 1.85 0.805618
    endloop
  endfacet
  facet normal 0 1 0
    outer loop
      vertex 19.0585 1.85 0.805618
      vertex 21.2203 1.85 9.0164
      vertex 21.4079 1.85 0.859651
    endloop
  endfacet
  facet normal 0 1 0
    outer loop
      vertex 21.2203 1.85 9.0164
      vertex 19.0585 1.85 0.805618
      vertex 18.8699 1.85 9.00902
    endloop
  endfacet
  facet normal 0 -1 0
    outer loop
      vertex 19.0585 24.55 0.805618
      vertex 21.2203 24.55 9.0164
      vertex 18.8699 24.55 9.00902
    endloop
  endfacet
  facet normal 0 -1 -0
    outer loop
      vertex 21.2203 24.55 9.0164
      vertex 19.0585 24.55 0.805618
      vertex 21.4079 24.55 0.859651
    endloop
  endfacet
  facet normal 0 -1 0
    outer loop
      vertex 22.6075 24.55 0.889661
      vertex 24.7378 24.55 9.04761
      vertex 22.3876 24.55 9.02546
    endloop
  endfacet
  facet normal 0 -1 -0
    outer loop
      vertex 24.7378 24.55 9.04761
      vertex 22.6075 24.55 0.889661
      vertex 24.9567 24.55 0.95317
    endloop
  endfacet
  facet normal -0.999635 0 -0.0270334
    outer loop
      vertex 24.9567 1.85 0.95317
      vertex 24.7378 24.55 9.04761
      vertex 24.9567 24.55 0.95317
    endloop
  endfacet
  facet normal -0.999635 -0 -0.0270334
    outer loop
      vertex 24.7378 24.55 9.04761
      vertex 24.9567 1.85 0.95317
      vertex 24.7378 1.85 9.04761
    endloop
  endfacet
  facet normal -0.0270244 0 0.999635
    outer loop
      vertex 22.6075 24.55 0.889661
      vertex 24.9567 1.85 0.95317
      vertex 24.9567 24.55 0.95317
    endloop
  endfacet
  facet normal -0.0270244 0 0.999635
    outer loop
      vertex 24.9567 1.85 0.95317
      vertex 22.6075 24.55 0.889661
      vertex 22.6075 1.85 0.889661
    endloop
  endfacet
  facet normal 0.999635 -0 0.0270188
    outer loop
      vertex 22.3876 1.85 9.02546
      vertex 22.6075 24.55 0.889661
      vertex 22.3876 24.55 9.02546
    endloop
  endfacet
  facet normal 0.999635 0 0.0270188
    outer loop
      vertex 22.6075 24.55 0.889661
      vertex 22.3876 1.85 9.02546
      vertex 22.6075 1.85 0.889661
    endloop
  endfacet
  facet normal 0 1 0
    outer loop
      vertex 22.6075 1.85 0.889661
      vertex 24.7378 1.85 9.04761
      vertex 24.9567 1.85 0.95317
    endloop
  endfacet
  facet normal 0 1 0
    outer loop
      vertex 24.7378 1.85 9.04761
      vertex 22.6075 1.85 0.889661
      vertex 22.3876 1.85 9.02546
    endloop
  endfacet
  facet normal 0 -1 0
    outer loop
      vertex 27.0581 24.55 9.06948
      vertex 28.505 24.55 1.061
      vertex 28.2556 24.55 9.08829
    endloop
  endfacet
  facet normal 0 -1 0
    outer loop
      vertex 26.1562 24.55 0.98802
      vertex 27.0581 24.55 9.06948
      vertex 25.9054 24.55 9.05862
    endloop
  endfacet
  facet normal 0 -1 -0
    outer loop
      vertex 27.0581 24.55 9.06948
      vertex 26.1562 24.55 0.98802
      vertex 28.505 24.55 1.061
    endloop
  endfacet
  facet normal -0.999518 0 -0.031054
    outer loop
      vertex 28.505 1.85 1.061
      vertex 28.2556 24.55 9.08829
      vertex 28.505 24.55 1.061
    endloop
  endfacet
  facet normal -0.999518 -0 -0.031054
    outer loop
      vertex 28.2556 24.55 9.08829
      vertex 28.505 1.85 1.061
      vertex 28.2556 1.85 9.08829
    endloop
  endfacet
  facet normal -0.0310562 0 0.999518
    outer loop
      vertex 26.1562 24.55 0.98802
      vertex 28.505 1.85 1.061
      vertex 28.505 24.55 1.061
    endloop
  endfacet
  facet normal -0.0310562 0 0.999518
    outer loop
      vertex 28.505 1.85 1.061
      vertex 26.1562 24.55 0.98802
      vertex 26.1562 1.85 0.98802
    endloop
  endfacet
  facet normal 0.999517 -0 0.0310608
    outer loop
      vertex 25.9054 1.85 9.05862
      vertex 26.1562 24.55 0.98802
      vertex 25.9054 24.55 9.05862
    endloop
  endfacet
  facet normal 0.999517 0 0.0310608
    outer loop
      vertex 26.1562 24.55 0.98802
      vertex 25.9054 1.85 9.05862
      vertex 26.1562 1.85 0.98802
    endloop
  endfacet
  facet normal 0 1 0
    outer loop
      vertex 28.505 1.85 1.061
      vertex 27.0581 1.85 9.06948
      vertex 28.2556 1.85 9.08829
    endloop
  endfacet
  facet normal 0 1 0
    outer loop
      vertex 26.1562 1.85 0.98802
      vertex 27.0581 1.85 9.06948
      vertex 28.505 1.85 1.061
    endloop
  endfacet
  facet normal 0 1 0
    outer loop
      vertex 27.0581 1.85 9.06948
      vertex 26.1562 1.85 0.98802
      vertex 25.9054 1.85 9.05862
    endloop
  endfacet
  facet normal 0.999384 -0 0.0350898
    outer loop
      vertex 29.4233 1.85 9.10664
      vertex 29.7044 24.55 1.10069
      vertex 29.4233 24.55 9.10664
    endloop
  endfacet
  facet normal 0.999384 0 0.0350898
    outer loop
      vertex 29.7044 24.55 1.10069
      vertex 29.4233 1.85 9.10664
      vertex 29.7044 1.85 1.10069
    endloop
  endfacet
  facet normal -0.0350901 0 0.999384
    outer loop
      vertex 29.7044 24.55 1.10069
      vertex 32.0529 1.85 1.18315
      vertex 32.0529 24.55 1.18315
    endloop
  endfacet
  facet normal -0.0350901 0 0.999384
    outer loop
      vertex 32.0529 1.85 1.18315
      vertex 29.7044 24.55 1.10069
      vertex 29.7044 1.85 1.10069
    endloop
  endfacet
  facet normal 0 -1 0
    outer loop
      vertex 29.7044 24.55 1.10069
      vertex 31.7734 24.55 9.14355
      vertex 29.4233 24.55 9.10664
    endloop
  endfacet
  facet normal 0 -1 -0
    outer loop
      vertex 31.7734 24.55 9.14355
      vertex 29.7044 24.55 1.10069
      vertex 32.0529 24.55 1.18315
    endloop
  endfacet
  facet normal 0 1 0
    outer loop
      vertex 29.7044 1.85 1.10069
      vertex 31.7734 1.85 9.14355
      vertex 32.0529 1.85 1.18315
    endloop
  endfacet
  facet normal 0 1 0
    outer loop
      vertex 31.7734 1.85 9.14355
      vertex 29.7044 1.85 1.10069
      vertex 29.4233 1.85 9.10664
    endloop
  endfacet
  facet normal -0.999384 0 -0.0350897
    outer loop
      vertex 32.0529 1.85 1.18315
      vertex 31.7734 24.55 9.14355
      vertex 32.0529 24.55 1.18315
    endloop
  endfacet
  facet normal -0.999384 -0 -0.0350897
    outer loop
      vertex 31.7734 24.55 9.14355
      vertex 32.0529 1.85 1.18315
      vertex 31.7734 1.85 9.14355
    endloop
  endfacet
  facet normal 0 -1 0
    outer loop
      vertex 33.2521 24.55 1.22768
      vertex 35.2912 24.55 9.21581
      vertex 32.9414 24.55 9.16413
    endloop
  endfacet
  facet normal 0 -1 -0
    outer loop
      vertex 35.2912 24.55 9.21581
      vertex 33.2521 24.55 1.22768
      vertex 35.6003 24.55 1.31961
    endloop
  endfacet
  facet normal -0.999235 0 -0.0391155
    outer loop
      vertex 35.6003 1.85 1.31961
      vertex 35.2912 24.55 9.21581
      vertex 35.6003 24.55 1.31961
    endloop
  endfacet
  facet normal -0.999235 -0 -0.0391155
    outer loop
      vertex 35.2912 24.55 9.21581
      vertex 35.6003 1.85 1.31961
      vertex 35.2912 1.85 9.21581
    endloop
  endfacet
  facet normal -0.0391192 0 0.999235
    outer loop
      vertex 33.2521 24.55 1.22768
      vertex 35.6003 1.85 1.31961
      vertex 35.6003 24.55 1.31961
    endloop
  endfacet
  facet normal -0.0391192 0 0.999235
    outer loop
      vertex 35.6003 1.85 1.31961
      vertex 33.2521 24.55 1.22768
      vertex 33.2521 1.85 1.22768
    endloop
  endfacet
  facet normal 0.999235 -0 0.0391185
    outer loop
      vertex 32.9414 1.85 9.16413
      vertex 33.2521 24.55 1.22768
      vertex 32.9414 24.55 9.16413
    endloop
  endfacet
  facet normal 0.999235 0 0.0391185
    outer loop
      vertex 33.2521 24.55 1.22768
      vertex 32.9414 1.85 9.16413
      vertex 33.2521 1.85 1.22768
    endloop
  endfacet
  facet normal 0 1 0
    outer loop
      vertex 33.2521 1.85 1.22768
      vertex 35.2912 1.85 9.21581
      vertex 35.6003 1.85 1.31961
    endloop
  endfacet
  facet normal 0 1 0
    outer loop
      vertex 35.2912 1.85 9.21581
      vertex 33.2521 1.85 1.22768
      vertex 32.9414 1.85 9.16413
    endloop
  endfacet
  facet normal -0.999068 0 -0.0431554
    outer loop
      vertex 39.1471 1.85 1.47038
      vertex 38.809 24.55 9.29756
      vertex 39.1471 24.55 1.47038
    endloop
  endfacet
  facet normal -0.999068 -0 -0.0431554
    outer loop
      vertex 38.809 24.55 9.29756
      vertex 39.1471 1.85 1.47038
      vertex 38.809 1.85 9.29756
    endloop
  endfacet
  facet normal -0.0431491 0 0.999069
    outer loop
      vertex 36.7993 24.55 1.36898
      vertex 39.1471 1.85 1.47038
      vertex 39.1471 24.55 1.47038
    endloop
  endfacet
  facet normal -0.0431491 0 0.999069
    outer loop
      vertex 39.1471 1.85 1.47038
      vertex 36.7993 24.55 1.36898
      vertex 36.7993 1.85 1.36898
    endloop
  endfacet
  facet normal 0.999069 -0 0.0431479
    outer loop
      vertex 36.4593 1.85 9.24151
      vertex 36.7993 24.55 1.36898
      vertex 36.4593 24.55 9.24151
    endloop
  endfacet
  facet normal 0.999069 0 0.0431479
    outer loop
      vertex 36.7993 24.55 1.36898
      vertex 36.4593 1.85 9.24151
      vertex 36.7993 1.85 1.36898
    endloop
  endfacet
  facet normal 0 -1 0
    outer loop
      vertex 38.1145 24.55 9.27791
      vertex 39.1471 24.55 1.47038
      vertex 38.809 24.55 9.29756
    endloop
  endfacet
  facet normal 0 -1 0
    outer loop
      vertex 36.7993 24.55 1.36898
      vertex 38.1145 24.55 9.27791
      vertex 36.4593 24.55 9.24151
    endloop
  endfacet
  facet normal 0 -1 -0
    outer loop
      vertex 38.1145 24.55 9.27791
      vertex 36.7993 24.55 1.36898
      vertex 39.1471 24.55 1.47038
    endloop
  endfacet
  facet normal 0 1 0
    outer loop
      vertex 39.1471 1.85 1.47038
      vertex 38.1145 1.85 9.27791
      vertex 38.809 1.85 9.29756
    endloop
  endfacet
  facet normal 0 1 0
    outer loop
      vertex 36.7993 1.85 1.36898
      vertex 38.1145 1.85 9.27791
      vertex 39.1471 1.85 1.47038
    endloop
  endfacet
  facet normal 0 1 0
    outer loop
      vertex 38.1145 1.85 9.27791
      vertex 36.7993 1.85 1.36898
      vertex 36.4593 1.85 9.24151
    endloop
  endfacet
  facet normal 0 -1 0
    outer loop
      vertex 40.3459 24.55 1.52458
      vertex 42.3267 24.55 9.39704
      vertex 39.9772 24.55 9.33059
    endloop
  endfacet
  facet normal 0 -1 -0
    outer loop
      vertex 42.3267 24.55 9.39704
      vertex 40.3459 24.55 1.52458
      vertex 42.6933 24.55 1.63546
    endloop
  endfacet
  facet normal -0.998886 0 -0.0471801
    outer loop
      vertex 42.6933 1.85 1.63546
      vertex 42.3267 24.55 9.39704
      vertex 42.6933 24.55 1.63546
    endloop
  endfacet
  facet normal -0.998886 -0 -0.0471801
    outer loop
      vertex 42.3267 24.55 9.39704
      vertex 42.6933 1.85 1.63546
      vertex 42.3267 1.85 9.39704
    endloop
  endfacet
  facet normal -0.0471826 0 0.998886
    outer loop
      vertex 40.3459 24.55 1.52458
      vertex 42.6933 1.85 1.63546
      vertex 42.6933 24.55 1.63546
    endloop
  endfacet
  facet normal -0.0471826 0 0.998886
    outer loop
      vertex 42.6933 1.85 1.63546
      vertex 40.3459 24.55 1.52458
      vertex 40.3459 1.85 1.52458
    endloop
  endfacet
  facet normal 0.998886 -0 0.0471802
    outer loop
      vertex 39.9772 1.85 9.33059
      vertex 40.3459 24.55 1.52458
      vertex 39.9772 24.55 9.33059
    endloop
  endfacet
  facet normal 0.998886 0 0.0471802
    outer loop
      vertex 40.3459 24.55 1.52458
      vertex 39.9772 1.85 9.33059
      vertex 40.3459 1.85 1.52458
    endloop
  endfacet
  facet normal 0 1 0
    outer loop
      vertex 40.3459 1.85 1.52458
      vertex 42.3267 1.85 9.39704
      vertex 42.6933 1.85 1.63546
    endloop
  endfacet
  facet normal 0 1 0
    outer loop
      vertex 42.3267 1.85 9.39704
      vertex 40.3459 1.85 1.52458
      vertex 39.9772 1.85 9.33059
    endloop
  endfacet
  facet normal 0 -1 0
    outer loop
      vertex 43.6415 24.55 9.43423
      vertex 46.2387 24.55 1.81484
      vertex 45.8441 24.55 9.51038
    endloop
  endfacet
  facet normal 0 -1 0
    outer loop
      vertex 43.8918 24.55 1.69449
      vertex 43.6415 24.55 9.43423
      vertex 43.4952 24.55 9.43009
    endloop
  endfacet
  facet normal 0 -1 0
    outer loop
      vertex 43.6415 24.55 9.43423
      vertex 43.8918 24.55 1.69449
      vertex 46.2387 24.55 1.81484
    endloop
  endfacet
  facet normal 0.998688 -0 0.0512022
    outer loop
      vertex 43.4952 1.85 9.43009
      vertex 43.8918 24.55 1.69449
      vertex 43.4952 24.55 9.43009
    endloop
  endfacet
  facet normal 0.998688 0 0.0512022
    outer loop
      vertex 43.8918 24.55 1.69449
      vertex 43.4952 1.85 9.43009
      vertex 43.8918 1.85 1.69449
    endloop
  endfacet
  facet normal -0.0512131 0 0.998688
    outer loop
      vertex 43.8918 24.55 1.69449
      vertex 46.2387 1.85 1.81484
      vertex 46.2387 24.55 1.81484
    endloop
  endfacet
  facet normal -0.0512131 0 0.998688
    outer loop
      vertex 46.2387 1.85 1.81484
      vertex 43.8918 24.55 1.69449
      vertex 43.8918 1.85 1.69449
    endloop
  endfacet
  facet normal 0 1 0
    outer loop
      vertex 46.2387 1.85 1.81484
      vertex 43.6415 1.85 9.43423
      vertex 45.8441 1.85 9.51038
    endloop
  endfacet
  facet normal 0 1 -0
    outer loop
      vertex 43.8918 1.85 1.69449
      vertex 43.6415 1.85 9.43423
      vertex 46.2387 1.85 1.81484
    endloop
  endfacet
  facet normal 0 1 0
    outer loop
      vertex 43.6415 1.85 9.43423
      vertex 43.8918 1.85 1.69449
      vertex 43.4952 1.85 9.43009
    endloop
  endfacet
  facet normal -0.998688 0 -0.0512092
    outer loop
      vertex 46.2387 1.85 1.81484
      vertex 45.8441 24.55 9.51038
      vertex 46.2387 24.55 1.81484
    endloop
  endfacet
  facet normal -0.998688 -0 -0.0512092
    outer loop
      vertex 45.8441 24.55 9.51038
      vertex 46.2387 1.85 1.81484
      vertex 45.8441 1.85 9.51038
    endloop
  endfacet
  facet normal 0 -1 0
    outer loop
      vertex 49.1674 24.55 9.62526
      vertex 49.7835 24.55 2.00852
      vertex 49.3616 24.55 9.6332
    endloop
  endfacet
  facet normal 0 -1 0
    outer loop
      vertex 47.437 24.55 1.87871
      vertex 49.1674 24.55 9.62526
      vertex 47.0126 24.55 9.55077
    endloop
  endfacet
  facet normal 0 -1 -0
    outer loop
      vertex 49.1674 24.55 9.62526
      vertex 47.437 24.55 1.87871
      vertex 49.7835 24.55 2.00852
    endloop
  endfacet
  facet normal -0.998473 0 -0.055249
    outer loop
      vertex 49.7835 1.85 2.00852
      vertex 49.3616 24.55 9.6332
      vertex 49.7835 24.55 2.00852
    endloop
  endfacet
  facet normal -0.998473 -0 -0.055249
    outer loop
      vertex 49.3616 24.55 9.6332
      vertex 49.7835 1.85 2.00852
      vertex 49.3616 1.85 9.6332
    endloop
  endfacet
  facet normal -0.0552362 0 0.998473
    outer loop
      vertex 47.437 24.55 1.87871
      vertex 49.7835 1.85 2.00852
      vertex 49.7835 24.55 2.00852
    endloop
  endfacet
  facet normal -0.0552362 0 0.998473
    outer loop
      vertex 49.7835 1.85 2.00852
      vertex 47.437 24.55 1.87871
      vertex 47.437 1.85 1.87871
    endloop
  endfacet
  facet normal 0.998473 -0 0.0552332
    outer loop
      vertex 47.0126 1.85 9.55077
      vertex 47.437 24.55 1.87871
      vertex 47.0126 24.55 9.55077
    endloop
  endfacet
  facet normal 0.998473 0 0.0552332
    outer loop
      vertex 47.437 24.55 1.87871
      vertex 47.0126 1.85 9.55077
      vertex 47.437 1.85 1.87871
    endloop
  endfacet
  facet normal 0 1 0
    outer loop
      vertex 49.7835 1.85 2.00852
      vertex 49.1674 1.85 9.62526
      vertex 49.3616 1.85 9.6332
    endloop
  endfacet
  facet normal 0 1 0
    outer loop
      vertex 47.437 1.85 1.87871
      vertex 49.1674 1.85 9.62526
      vertex 49.7835 1.85 2.00852
    endloop
  endfacet
  facet normal 0 1 0
    outer loop
      vertex 49.1674 1.85 9.62526
      vertex 47.437 1.85 1.87871
      vertex 47.0126 1.85 9.55077
    endloop
  endfacet
  facet normal 0.998242 -0 0.0592743
    outer loop
      vertex 50.53 1.85 9.68095
      vertex 50.9815 24.55 2.07722
      vertex 50.53 24.55 9.68095
    endloop
  endfacet
  facet normal 0.998242 0 0.0592743
    outer loop
      vertex 50.9815 24.55 2.07722
      vertex 50.53 1.85 9.68095
      vertex 50.9815 1.85 2.07722
    endloop
  endfacet
  facet normal -0.0592673 0 0.998242
    outer loop
      vertex 50.9815 24.55 2.07722
      vertex 53.3274 1.85 2.2165
      vertex 53.3274 24.55 2.2165
    endloop
  endfacet
  facet normal -0.0592673 0 0.998242
    outer loop
      vertex 53.3274 1.85 2.2165
      vertex 50.9815 24.55 2.07722
      vertex 50.9815 1.85 2.07722
    endloop
  endfacet
  facet normal 0 1 0
    outer loop
      vertex 50.9815 1.85 2.07722
      vertex 52.8785 1.85 9.77691
      vertex 53.3274 1.85 2.2165
    endloop
  endfacet
  facet normal 0 1 0
    outer loop
      vertex 52.8785 1.85 9.77691
      vertex 50.9815 1.85 2.07722
      vertex 50.53 1.85 9.68095
    endloop
  endfacet
  facet normal 0 -1 0
    outer loop
      vertex 50.9815 24.55 2.07722
      vertex 52.8785 24.55 9.77691
      vertex 50.53 24.55 9.68095
    endloop
  endfacet
  facet normal 0 -1 -0
    outer loop
      vertex 52.8785 24.55 9.77691
      vertex 50.9815 24.55 2.07722
      vertex 53.3274 24.55 2.2165
    endloop
  endfacet
  facet normal -0.998242 0 -0.0592707
    outer loop
      vertex 53.3274 1.85 2.2165
      vertex 52.8785 24.55 9.77691
      vertex 53.3274 24.55 2.2165
    endloop
  endfacet
  facet normal -0.998242 -0 -0.0592707
    outer loop
      vertex 52.8785 24.55 9.77691
      vertex 53.3274 1.85 2.2165
      vertex 52.8785 1.85 9.77691
    endloop
  endfacet
  facet normal -0.997995 0 -0.0632957
    outer loop
      vertex 56.8704 1.85 2.43877
      vertex 56.3952 24.55 9.93134
      vertex 56.8704 24.55 2.43877
    endloop
  endfacet
  facet normal -0.997995 -0 -0.0632957
    outer loop
      vertex 56.3952 24.55 9.93134
      vertex 56.8704 1.85 2.43877
      vertex 56.3952 1.85 9.93134
    endloop
  endfacet
  facet normal -0.0632891 0 0.997995
    outer loop
      vertex 54.5251 24.55 2.29004
      vertex 56.8704 1.85 2.43877
      vertex 56.8704 24.55 2.43877
    endloop
  endfacet
  facet normal -0.0632891 0 0.997995
    outer loop
      vertex 56.8704 1.85 2.43877
      vertex 54.5251 24.55 2.29004
      vertex 54.5251 1.85 2.29004
    endloop
  endfacet
  facet normal 0.997995 -0 0.0632867
    outer loop
      vertex 54.0473 1.85 9.82467
      vertex 54.5251 24.55 2.29004
      vertex 54.0473 24.55 9.82467
    endloop
  endfacet
  facet normal 0.997995 0 0.0632867
    outer loop
      vertex 54.5251 24.55 2.29004
      vertex 54.0473 1.85 9.82467
      vertex 54.5251 1.85 2.29004
    endloop
  endfacet
  facet normal 0 -1 0
    outer loop
      vertex 54.6919 24.55 9.85102
      vertex 56.8704 24.55 2.43877
      vertex 56.3952 24.55 9.93134
    endloop
  endfacet
  facet normal 0 -1 0
    outer loop
      vertex 54.5251 24.55 2.29004
      vertex 54.6919 24.55 9.85102
      vertex 54.0473 24.55 9.82467
    endloop
  endfacet
  facet normal 0 -1 -0
    outer loop
      vertex 54.6919 24.55 9.85102
      vertex 54.5251 24.55 2.29004
      vertex 56.8704 24.55 2.43877
    endloop
  endfacet
  facet normal 0 1 0
    outer loop
      vertex 56.8704 1.85 2.43877
      vertex 54.6919 1.85 9.85102
      vertex 56.3952 1.85 9.93134
    endloop
  endfacet
  facet normal 0 1 0
    outer loop
      vertex 54.5251 1.85 2.29004
      vertex 54.6919 1.85 9.85102
      vertex 56.8704 1.85 2.43877
    endloop
  endfacet
  facet normal 0 1 0
    outer loop
      vertex 54.6919 1.85 9.85102
      vertex 54.5251 1.85 2.29004
      vertex 54.0473 1.85 9.82467
    endloop
  endfacet
  facet normal 0 -1 0
    outer loop
      vertex 58.0678 24.55 2.51714
      vertex 59.9117 24.55 10.0972
      vertex 57.5639 24.55 9.98645
    endloop
  endfacet
  facet normal 0 -1 -0
    outer loop
      vertex 59.9117 24.55 10.0972
      vertex 58.0678 24.55 2.51714
      vertex 60.4125 24.55 2.67534
    endloop
  endfacet
  facet normal -0.997731 0 -0.0673233
    outer loop
      vertex 60.4125 1.85 2.67534
      vertex 59.9117 24.55 10.0972
      vertex 60.4125 24.55 2.67534
    endloop
  endfacet
  facet normal -0.997731 -0 -0.0673233
    outer loop
      vertex 59.9117 24.55 10.0972
      vertex 60.4125 1.85 2.67534
      vertex 59.9117 1.85 10.0972
    endloop
  endfacet
  facet normal -0.0673183 0 0.997732
    outer loop
      vertex 58.0678 24.55 2.51714
      vertex 60.4125 1.85 2.67534
      vertex 60.4125 24.55 2.67534
    endloop
  endfacet
  facet normal -0.0673183 0 0.997732
    outer loop
      vertex 60.4125 1.85 2.67534
      vertex 58.0678 24.55 2.51714
      vertex 58.0678 1.85 2.51714
    endloop
  endfacet
  facet normal 0.997732 -0 0.0673097
    outer loop
      vertex 57.5639 1.85 9.98645
      vertex 58.0678 24.55 2.51714
      vertex 57.5639 24.55 9.98645
    endloop
  endfacet
  facet normal 0.997732 0 0.0673097
    outer loop
      vertex 58.0678 24.55 2.51714
      vertex 57.5639 1.85 9.98645
      vertex 58.0678 1.85 2.51714
    endloop
  endfacet
  facet normal 0 1 0
    outer loop
      vertex 58.0678 1.85 2.51714
      vertex 59.9117 1.85 10.0972
      vertex 60.4125 1.85 2.67534
    endloop
  endfacet
  facet normal 0 1 0
    outer loop
      vertex 59.9117 1.85 10.0972
      vertex 58.0678 1.85 2.51714
      vertex 57.5639 1.85 9.98645
    endloop
  endfacet
  facet normal 0 -1 0
    outer loop
      vertex 61.6096 24.55 2.75854
      vertex 63.4274 24.55 10.2832
      vertex 61.0804 24.55 10.1577
    endloop
  endfacet
  facet normal 0 -1 -0
    outer loop
      vertex 63.4274 24.55 10.2832
      vertex 61.6096 24.55 2.75854
      vertex 63.9536 24.55 2.92619
    endloop
  endfacet
  facet normal -0.997452 0 -0.0713414
    outer loop
      vertex 63.9536 1.85 2.92619
      vertex 63.4274 24.55 10.2832
      vertex 63.9536 24.55 2.92619
    endloop
  endfacet
  facet normal -0.997452 -0 -0.0713414
    outer loop
      vertex 63.4274 24.55 10.2832
      vertex 63.9536 1.85 2.92619
      vertex 63.4274 1.85 10.2832
    endloop
  endfacet
  facet normal -0.0713408 0 0.997452
    outer loop
      vertex 61.6096 24.55 2.75854
      vertex 63.9536 1.85 2.92619
      vertex 63.9536 24.55 2.92619
    endloop
  endfacet
  facet normal -0.0713408 0 0.997452
    outer loop
      vertex 63.9536 1.85 2.92619
      vertex 61.6096 24.55 2.75854
      vertex 61.6096 1.85 2.75854
    endloop
  endfacet
  facet normal 0.997452 -0 0.0713394
    outer loop
      vertex 61.0804 1.85 10.1577
      vertex 61.6096 24.55 2.75854
      vertex 61.0804 24.55 10.1577
    endloop
  endfacet
  facet normal 0.997452 0 0.0713394
    outer loop
      vertex 61.6096 24.55 2.75854
      vertex 61.0804 1.85 10.1577
      vertex 61.6096 1.85 2.75854
    endloop
  endfacet
  facet normal 0 1 0
    outer loop
      vertex 61.6096 1.85 2.75854
      vertex 63.4274 1.85 10.2832
      vertex 63.9536 1.85 2.92619
    endloop
  endfacet
  facet normal 0 1 0
    outer loop
      vertex 63.4274 1.85 10.2832
      vertex 61.6096 1.85 2.75854
      vertex 61.0804 1.85 10.1577
    endloop
  endfacet
  facet normal -0.997156 0 -0.0753679
    outer loop
      vertex 67.4937 1.85 3.19133
      vertex 66.9429 24.55 10.4787
      vertex 67.4937 24.55 3.19133
    endloop
  endfacet
  facet normal -0.997156 -0 -0.0753679
    outer loop
      vertex 66.9429 24.55 10.4787
      vertex 67.4937 1.85 3.19133
      vertex 66.9429 1.85 10.4787
    endloop
  endfacet
  facet normal -0.0753665 0 0.997156
    outer loop
      vertex 65.1504 24.55 3.01422
      vertex 67.4937 1.85 3.19133
      vertex 67.4937 24.55 3.19133
    endloop
  endfacet
  facet normal -0.0753665 0 0.997156
    outer loop
      vertex 67.4937 1.85 3.19133
      vertex 65.1504 24.55 3.01422
      vertex 65.1504 1.85 3.01422
    endloop
  endfacet
  facet normal 0.997156 -0 0.0753633
    outer loop
      vertex 64.5963 1.85 10.3457
      vertex 65.1504 24.55 3.01422
      vertex 64.5963 24.55 10.3457
    endloop
  endfacet
  facet normal 0.997156 0 0.0753633
    outer loop
      vertex 65.1504 24.55 3.01422
      vertex 64.5963 1.85 10.3457
      vertex 65.1504 1.85 3.01422
    endloop
  endfacet
  facet normal 0 -1 0
    outer loop
      vertex 65.7363 24.55 10.4066
      vertex 67.4937 24.55 3.19133
      vertex 66.9429 24.55 10.4787
    endloop
  endfacet
  facet normal 0 -1 0
    outer loop
      vertex 65.1504 24.55 3.01422
      vertex 65.7363 24.55 10.4066
      vertex 64.5963 24.55 10.3457
    endloop
  endfacet
  facet normal 0 -1 -0
    outer loop
      vertex 65.7363 24.55 10.4066
      vertex 65.1504 24.55 3.01422
      vertex 67.4937 24.55 3.19133
    endloop
  endfacet
  facet normal 0 1 0
    outer loop
      vertex 67.4937 1.85 3.19133
      vertex 65.7363 1.85 10.4066
      vertex 66.9429 1.85 10.4787
    endloop
  endfacet
  facet normal 0 1 0
    outer loop
      vertex 65.1504 1.85 3.01422
      vertex 65.7363 1.85 10.4066
      vertex 67.4937 1.85 3.19133
    endloop
  endfacet
  facet normal 0 1 0
    outer loop
      vertex 65.7363 1.85 10.4066
      vertex 65.1504 1.85 3.01422
      vertex 64.5963 1.85 10.3457
    endloop
  endfacet
  facet normal 0.996844 -0 0.0793834
    outer loop
      vertex 68.1116 1.85 10.5486
      vertex 68.6901 24.55 3.28418
      vertex 68.1116 24.55 10.5486
    endloop
  endfacet
  facet normal 0.996844 0 0.0793834
    outer loop
      vertex 68.6901 24.55 3.28418
      vertex 68.1116 1.85 10.5486
      vertex 68.6901 1.85 3.28418
    endloop
  endfacet
  facet normal -0.996844 0 -0.0793823
    outer loop
      vertex 71.0327 1.85 3.47074
      vertex 70.4579 24.55 10.6888
      vertex 71.0327 24.55 3.47074
    endloop
  endfacet
  facet normal -0.996844 -0 -0.0793823
    outer loop
      vertex 70.4579 24.55 10.6888
      vertex 71.0327 1.85 3.47074
      vertex 70.4579 1.85 10.6888
    endloop
  endfacet
  facet normal -0.0793867 0 0.996844
    outer loop
      vertex 68.6901 24.55 3.28418
      vertex 71.0327 1.85 3.47074
      vertex 71.0327 24.55 3.47074
    endloop
  endfacet
  facet normal -0.0793867 0 0.996844
    outer loop
      vertex 71.0327 1.85 3.47074
      vertex 68.6901 24.55 3.28418
      vertex 68.6901 1.85 3.28418
    endloop
  endfacet
  facet normal 0 1 0
    outer loop
      vertex 68.6901 1.85 3.28418
      vertex 70.4579 1.85 10.6888
      vertex 71.0327 1.85 3.47074
    endloop
  endfacet
  facet normal 0 1 0
    outer loop
      vertex 70.4579 1.85 10.6888
      vertex 68.6901 1.85 3.28418
      vertex 68.1116 1.85 10.5486
    endloop
  endfacet
  facet normal 0 -1 0
    outer loop
      vertex 68.6901 24.55 3.28418
      vertex 70.4579 24.55 10.6888
      vertex 68.1116 24.55 10.5486
    endloop
  endfacet
  facet normal 0 -1 -0
    outer loop
      vertex 70.4579 24.55 10.6888
      vertex 68.6901 24.55 3.28418
      vertex 71.0327 24.55 3.47074
    endloop
  endfacet
  facet normal -0.996515 0 -0.0834114
    outer loop
      vertex 74.5705 1.85 3.76443
      vertex 73.9719 24.55 10.9159
      vertex 74.5705 24.55 3.76443
    endloop
  endfacet
  facet normal -0.996515 -0 -0.0834114
    outer loop
      vertex 73.9719 24.55 10.9159
      vertex 74.5705 1.85 3.76443
      vertex 73.9719 1.85 10.9159
    endloop
  endfacet
  facet normal -0.0834089 0 0.996515
    outer loop
      vertex 72.2287 24.55 3.56842
      vertex 74.5705 1.85 3.76443
      vertex 74.5705 24.55 3.76443
    endloop
  endfacet
  facet normal -0.0834089 0 0.996515
    outer loop
      vertex 74.5705 1.85 3.76443
      vertex 72.2287 24.55 3.56842
      vertex 72.2287 1.85 3.56842
    endloop
  endfacet
  facet normal 0.996516 -0 0.0834057
    outer loop
      vertex 71.6267 1.85 10.761
      vertex 72.2287 24.55 3.56842
      vertex 71.6267 24.55 10.761
    endloop
  endfacet
  facet normal 0.996516 0 0.0834057
    outer loop
      vertex 72.2287 24.55 3.56842
      vertex 71.6267 1.85 10.761
      vertex 72.2287 1.85 3.56842
    endloop
  endfacet
  facet normal 0 -1 0
    outer loop
      vertex 72.2287 24.55 3.56842
      vertex 73.9719 24.55 10.9159
      vertex 71.6267 24.55 10.761
    endloop
  endfacet
  facet normal 0 -1 -0
    outer loop
      vertex 73.9719 24.55 10.9159
      vertex 72.2287 24.55 3.56842
      vertex 74.5705 24.55 3.76443
    endloop
  endfacet
  facet normal 0 1 0
    outer loop
      vertex 72.2287 1.85 3.56842
      vertex 73.9719 1.85 10.9159
      vertex 74.5705 1.85 3.76443
    endloop
  endfacet
  facet normal 0 1 0
    outer loop
      vertex 73.9719 1.85 10.9159
      vertex 72.2287 1.85 3.56842
      vertex 71.6267 1.85 10.761
    endloop
  endfacet
  facet normal 0 -1 0
    outer loop
      vertex 76.7728 24.55 11.101
      vertex 78.1071 24.55 4.07239
      vertex 77.4858 24.55 11.1526
    endloop
  endfacet
  facet normal 0 -1 0
    outer loop
      vertex 75.7661 24.55 3.86693
      vertex 76.7728 24.55 11.101
      vertex 75.1407 24.55 10.9932
    endloop
  endfacet
  facet normal 0 -1 -0
    outer loop
      vertex 76.7728 24.55 11.101
      vertex 75.7661 24.55 3.86693
      vertex 78.1071 24.55 4.07239
    endloop
  endfacet
  facet normal -0.996172 0 -0.0874157
    outer loop
      vertex 78.1071 1.85 4.07239
      vertex 77.4858 24.55 11.1526
      vertex 78.1071 24.55 4.07239
    endloop
  endfacet
  facet normal -0.996172 -0 -0.0874157
    outer loop
      vertex 77.4858 24.55 11.1526
      vertex 78.1071 1.85 4.07239
      vertex 77.4858 1.85 11.1526
    endloop
  endfacet
  facet normal -0.0874298 0 0.996171
    outer loop
      vertex 75.7661 24.55 3.86693
      vertex 78.1071 1.85 4.07239
      vertex 78.1071 24.55 4.07239
    endloop
  endfacet
  facet normal -0.0874298 0 0.996171
    outer loop
      vertex 78.1071 1.85 4.07239
      vertex 75.7661 24.55 3.86693
      vertex 75.7661 1.85 3.86693
    endloop
  endfacet
  facet normal 0.996171 -0 0.0874238
    outer loop
      vertex 75.1407 1.85 10.9932
      vertex 75.7661 24.55 3.86693
      vertex 75.1407 24.55 10.9932
    endloop
  endfacet
  facet normal 0.996171 0 0.0874238
    outer loop
      vertex 75.7661 24.55 3.86693
      vertex 75.1407 1.85 10.9932
      vertex 75.7661 1.85 3.86693
    endloop
  endfacet
  facet normal 0 1 0
    outer loop
      vertex 78.1071 1.85 4.07239
      vertex 76.7728 1.85 11.101
      vertex 77.4858 1.85 11.1526
    endloop
  endfacet
  facet normal 0 1 0
    outer loop
      vertex 75.7661 1.85 3.86693
      vertex 76.7728 1.85 11.101
      vertex 78.1071 1.85 4.07239
    endloop
  endfacet
  facet normal 0 1 0
    outer loop
      vertex 76.7728 1.85 11.101
      vertex 75.7661 1.85 3.86693
      vertex 75.1407 1.85 10.9932
    endloop
  endfacet
  facet normal 0.995811 -0 0.0914327
    outer loop
      vertex 78.6543 1.85 11.2372
      vertex 79.3023 24.55 4.17971
      vertex 78.6543 24.55 11.2372
    endloop
  endfacet
  facet normal 0.995811 0 0.0914327
    outer loop
      vertex 79.3023 24.55 4.17971
      vertex 78.6543 1.85 11.2372
      vertex 79.3023 1.85 4.17971
    endloop
  endfacet
  facet normal -0.995811 0 -0.0914398
    outer loop
      vertex 81.6425 1.85 4.39461
      vertex 80.9986 24.55 11.4069
      vertex 81.6425 24.55 4.39461
    endloop
  endfacet
  facet normal -0.995811 -0 -0.0914398
    outer loop
      vertex 80.9986 24.55 11.4069
      vertex 81.6425 1.85 4.39461
      vertex 80.9986 1.85 11.4069
    endloop
  endfacet
  facet normal -0.091445 0 0.99581
    outer loop
      vertex 79.3023 24.55 4.17971
      vertex 81.6425 1.85 4.39461
      vertex 81.6425 24.55 4.39461
    endloop
  endfacet
  facet normal -0.091445 0 0.99581
    outer loop
      vertex 81.6425 1.85 4.39461
      vertex 79.3023 24.55 4.17971
      vertex 79.3023 1.85 4.17971
    endloop
  endfacet
  facet normal 0 -1 0
    outer loop
      vertex 79.3023 24.55 4.17971
      vertex 80.9986 24.55 11.4069
      vertex 78.6543 24.55 11.2372
    endloop
  endfacet
  facet normal 0 -1 -0
    outer loop
      vertex 80.9986 24.55 11.4069
      vertex 79.3023 24.55 4.17971
      vertex 81.6425 24.55 4.39461
    endloop
  endfacet
  facet normal 0 1 0
    outer loop
      vertex 79.3023 1.85 4.17971
      vertex 80.9986 1.85 11.4069
      vertex 81.6425 1.85 4.39461
    endloop
  endfacet
  facet normal 0 1 0
    outer loop
      vertex 80.9986 1.85 11.4069
      vertex 79.3023 1.85 4.17971
      vertex 78.6543 1.85 11.2372
    endloop
  endfacet
  facet normal 0 -1 0
    outer loop
      vertex 82.2876 24.55 11.5002
      vertex 85.1765 24.55 4.73109
      vertex 84.5106 24.55 11.6751
    endloop
  endfacet
  facet normal 0 -1 0
    outer loop
      vertex 82.8372 24.55 4.50676
      vertex 82.2876 24.55 11.5002
      vertex 82.1674 24.55 11.4915
    endloop
  endfacet
  facet normal 0 -1 0
    outer loop
      vertex 82.2876 24.55 11.5002
      vertex 82.8372 24.55 4.50676
      vertex 85.1765 24.55 4.73109
    endloop
  endfacet
  facet normal -0.995433 0 -0.0954577
    outer loop
      vertex 85.1765 1.85 4.73109
      vertex 84.5106 24.55 11.6751
      vertex 85.1765 24.55 4.73109
    endloop
  endfacet
  facet normal -0.995433 -0 -0.0954577
    outer loop
      vertex 84.5106 24.55 11.6751
      vertex 85.1765 1.85 4.73109
      vertex 84.5106 1.85 11.6751
    endloop
  endfacet
  facet normal -0.0954583 0 0.995433
    outer loop
      vertex 82.8372 24.55 4.50676
      vertex 85.1765 1.85 4.73109
      vertex 85.1765 24.55 4.73109
    endloop
  endfacet
  facet normal -0.0954583 0 0.995433
    outer loop
      vertex 85.1765 1.85 4.73109
      vertex 82.8372 24.55 4.50676
      vertex 82.8372 1.85 4.50676
    endloop
  endfacet
  facet normal 0.995434 -0 0.0954569
    outer loop
      vertex 82.1674 1.85 11.4915
      vertex 82.8372 24.55 4.50676
      vertex 82.1674 24.55 11.4915
    endloop
  endfacet
  facet normal 0.995434 0 0.0954569
    outer loop
      vertex 82.8372 24.55 4.50676
      vertex 82.1674 1.85 11.4915
      vertex 82.8372 1.85 4.50676
    endloop
  endfacet
  facet normal 0 1 0
    outer loop
      vertex 85.1765 1.85 4.73109
      vertex 82.2876 1.85 11.5002
      vertex 84.5106 1.85 11.6751
    endloop
  endfacet
  facet normal 0 1 -0
    outer loop
      vertex 82.8372 1.85 4.50676
      vertex 82.2876 1.85 11.5002
      vertex 85.1765 1.85 4.73109
    endloop
  endfacet
  facet normal 0 1 0
    outer loop
      vertex 82.2876 1.85 11.5002
      vertex 82.8372 1.85 4.50676
      vertex 82.1674 1.85 11.4915
    endloop
  endfacet
  facet normal 0 -1 0
    outer loop
      vertex 87.7997 24.55 11.934
      vertex 88.7091 24.55 5.08183
      vertex 88.0222 24.55 11.9529
    endloop
  endfacet
  facet normal 0 -1 0
    outer loop
      vertex 86.3708 24.55 4.84806
      vertex 87.7997 24.55 11.934
      vertex 85.6791 24.55 11.7671
    endloop
  endfacet
  facet normal 0 -1 -0
    outer loop
      vertex 87.7997 24.55 11.934
      vertex 86.3708 24.55 4.84806
      vertex 88.7091 24.55 5.08183
    endloop
  endfacet
  facet normal -0.99504 0 -0.099474
    outer loop
      vertex 88.7091 1.85 5.08183
      vertex 88.0222 24.55 11.9529
      vertex 88.7091 24.55 5.08183
    endloop
  endfacet
  facet normal -0.99504 -0 -0.099474
    outer loop
      vertex 88.0222 24.55 11.9529
      vertex 88.7091 1.85 5.08183
      vertex 88.0222 1.85 11.9529
    endloop
  endfacet
  facet normal -0.0994784 0 0.99504
    outer loop
      vertex 86.3708 24.55 4.84806
      vertex 88.7091 1.85 5.08183
      vertex 88.7091 24.55 5.08183
    endloop
  endfacet
  facet normal -0.0994784 0 0.99504
    outer loop
      vertex 88.7091 1.85 5.08183
      vertex 86.3708 24.55 4.84806
      vertex 86.3708 1.85 4.84806
    endloop
  endfacet
  facet normal 0.99504 -0 0.0994747
    outer loop
      vertex 85.6791 1.85 11.7671
      vertex 86.3708 24.55 4.84806
      vertex 85.6791 24.55 11.7671
    endloop
  endfacet
  facet normal 0.99504 0 0.0994747
    outer loop
      vertex 86.3708 24.55 4.84806
      vertex 85.6791 1.85 11.7671
      vertex 86.3708 1.85 4.84806
    endloop
  endfacet
  facet normal 0 1 0
    outer loop
      vertex 88.7091 1.85 5.08183
      vertex 87.7997 1.85 11.934
      vertex 88.0222 1.85 11.9529
    endloop
  endfacet
  facet normal 0 1 0
    outer loop
      vertex 86.3708 1.85 4.84806
      vertex 87.7997 1.85 11.934
      vertex 88.7091 1.85 5.08183
    endloop
  endfacet
  facet normal 0 1 0
    outer loop
      vertex 87.7997 1.85 11.934
      vertex 86.3708 1.85 4.84806
      vertex 85.6791 1.85 11.7671
    endloop
  endfacet
endsolid OpenSCAD_Model
