solid OpenSCAD_Model
  facet normal 0 1 -0
    outer loop
      vertex 18.5 54 0
      vertex 1.5 54 2
      vertex 18.5 54 2
    endloop
  endfacet
  facet normal 0 1 0
    outer loop
      vertex 1.5 54 2
      vertex 18.5 54 0
      vertex 1.5 54 0
    endloop
  endfacet
  facet normal 0 0 1
    outer loop
      vertex 0 51 2
      vertex 20 51 2
      vertex 18.5 54 2
    endloop
  endfacet
  facet normal 0 0 1
    outer loop
      vertex 0 51 2
      vertex 18.5 54 2
      vertex 1.5 54 2
    endloop
  endfacet
  facet normal 0 0 1
    outer loop
      vertex 20 51 2
      vertex 0 51 2
      vertex 20 5 2
    endloop
  endfacet
  facet normal 0 0 1
    outer loop
      vertex 20 5 2
      vertex 0 51 2
      vertex 0 5 2
    endloop
  endfacet
  facet normal 0.894427 0.447214 0
    outer loop
      vertex 20 51 2
      vertex 18.5 54 0
      vertex 18.5 54 2
    endloop
  endfacet
  facet normal 0.894427 0.447214 0
    outer loop
      vertex 18.5 54 0
      vertex 20 51 2
      vertex 20 51 0
    endloop
  endfacet
  facet normal 0 -1 0
    outer loop
      vertex -3.2 0 0
      vertex 23.2 0 7.5
      vertex -3.2 0 7.5
    endloop
  endfacet
  facet normal 0 -1 -0
    outer loop
      vertex 23.2 0 7.5
      vertex -3.2 0 0
      vertex 23.2 0 0
    endloop
  endfacet
  facet normal 0 0 -1
    outer loop
      vertex 23.2 0 0
      vertex 20 5 0
      vertex 23.2 5 0
    endloop
  endfacet
  facet normal 0 0 -1
    outer loop
      vertex 0 51 0
      vertex 20 51 0
      vertex 20 5 0
    endloop
  endfacet
  facet normal 0 0 -1
    outer loop
      vertex 20 51 0
      vertex 0 51 0
      vertex 18.5 54 0
    endloop
  endfacet
  facet normal 0 0 -1
    outer loop
      vertex 0 51 0
      vertex 20 5 0
      vertex 0 5 0
    endloop
  endfacet
  facet normal 0 0 -1
    outer loop
      vertex 23.2 0 0
      vertex 0 5 0
      vertex 20 5 0
    endloop
  endfacet
  facet normal 0 0 -1
    outer loop
      vertex -3.2 0 0
      vertex 0 5 0
      vertex 23.2 0 0
    endloop
  endfacet
  facet normal -0 0 -1
    outer loop
      vertex 0 5 0
      vertex -3.2 0 0
      vertex -3.2 5 0
    endloop
  endfacet
  facet normal -0 0 -1
    outer loop
      vertex 18.5 54 0
      vertex 0 51 0
      vertex 1.5 54 0
    endloop
  endfacet
  facet normal 1 -0 0
    outer loop
      vertex 20 5 2
      vertex 20 51 0
      vertex 20 51 2
    endloop
  endfacet
  facet normal 1 0 0
    outer loop
      vertex 20 51 0
      vertex 20 5 2
      vertex 20 5 0
    endloop
  endfacet
  facet normal -0.894427 0.447214 0
    outer loop
      vertex 0 51 0
      vertex 1.5 54 2
      vertex 1.5 54 0
    endloop
  endfacet
  facet normal -0.894427 0.447214 0
    outer loop
      vertex 1.5 54 2
      vertex 0 51 0
      vertex 0 51 2
    endloop
  endfacet
  facet normal -1 0 0
    outer loop
      vertex 0 5 0
      vertex 0 51 2
      vertex 0 51 0
    endloop
  endfacet
  facet normal -1 -0 0
    outer loop
      vertex 0 51 2
      vertex 0 5 0
      vertex 0 5 2
    endloop
  endfacet
  facet normal 1 -0 0
    outer loop
      vertex 23.2 0 7.5
      vertex 23.2 5 0
      vertex 23.2 5 7.5
    endloop
  endfacet
  facet normal 1 0 0
    outer loop
      vertex 23.2 5 0
      vertex 23.2 0 7.5
      vertex 23.2 0 0
    endloop
  endfacet
  facet normal -0 0 1
    outer loop
      vertex -3.2 5 7.5
      vertex 23.2 0 7.5
      vertex 23.2 5 7.5
    endloop
  endfacet
  facet normal 0 0 1
    outer loop
      vertex 23.2 0 7.5
      vertex -3.2 5 7.5
      vertex -3.2 0 7.5
    endloop
  endfacet
  facet normal -1 0 0
    outer loop
      vertex -3.2 0 0
      vertex -3.2 5 7.5
      vertex -3.2 5 0
    endloop
  endfacet
  facet normal -1 -0 0
    outer loop
      vertex -3.2 5 7.5
      vertex -3.2 0 0
      vertex -3.2 0 7.5
    endloop
  endfacet
  facet normal 0 1 0
    outer loop
      vertex 23.2 5 7.5
      vertex 20 5 2
      vertex -3.2 5 7.5
    endloop
  endfacet
  facet normal 0 1 -0
    outer loop
      vertex 23.2 5 0
      vertex 20 5 2
      vertex 23.2 5 7.5
    endloop
  endfacet
  facet normal 0 1 0
    outer loop
      vertex 20 5 2
      vertex 23.2 5 0
      vertex 20 5 0
    endloop
  endfacet
  facet normal 0 1 -0
    outer loop
      vertex 0 5 2
      vertex -3.2 5 7.5
      vertex 20 5 2
    endloop
  endfacet
  facet normal 0 1 0
    outer loop
      vertex -3.2 5 0
      vertex 0 5 2
      vertex 0 5 0
    endloop
  endfacet
  facet normal 0 1 0
    outer loop
      vertex 0 5 2
      vertex -3.2 5 0
      vertex -3.2 5 7.5
    endloop
  endfacet
endsolid OpenSCAD_Model
